<svg width="208" height="121" viewBox="0 0 208 121" fill="none" xmlns="http://www.w3.org/2000/svg">
<line y1="73.4775" x2="207.48" y2="73.4775" stroke="#D9DCE1" stroke-width="0.25"/>
<path d="M39.5842 75.4971V120.652" stroke="#13CE66" stroke-miterlimit="10"/>
<path d="M57.9216 50.0244V114.863" stroke="#13CE66" stroke-miterlimit="10"/>
<path d="M76.2588 25.7109V116.022" stroke="#13CE66" stroke-miterlimit="10"/>
<path d="M94.5962 33.8154V112.548" stroke="#FF6060" stroke-miterlimit="10"/>
<path d="M112.933 30.3413V98.6533" stroke="#13CE66" stroke-miterlimit="10"/>
<path d="M131.27 50.0244V114.863" stroke="#FF6060" stroke-miterlimit="10"/>
<path d="M149.608 25.7109V91.7073" stroke="#13CE66" stroke-miterlimit="10"/>
<path d="M167.945 0.237793V54.6559" stroke="#13CE66" stroke-miterlimit="10"/>
<path d="M44.1686 87.0747H35V105.6H44.1686V87.0747Z" fill="#13CE66"/>
<path d="M62.506 68.5498H53.3374V94.0221H62.506V68.5498Z" fill="#13CE66"/>
<path d="M80.8432 40.7622H71.6746V82.4441H80.8432V40.7622Z" fill="#13CE66"/>
<path d="M99.1806 75.4971H90.012V98.6537H99.1806V75.4971Z" fill="#FF6060"/>
<path d="M117.518 38.4458H108.349V77.8121H117.518V38.4458Z" fill="#13CE66"/>
<path d="M135.855 75.4971H126.686V100.969H135.855V75.4971Z" fill="#FF6060"/>
<path d="M154.192 33.8154H145.023V75.4974H154.192V33.8154Z" fill="#13CE66"/>
<path d="M172.529 8.34229H163.361V40.7616H172.529V8.34229Z" fill="#13CE66"/>
</svg>
