<svg width="181" height="132" viewBox="0 0 181 132" fill="none" xmlns="http://www.w3.org/2000/svg">
<path opacity="0.34" d="M54.4126 15.7221C59.8387 26.2328 81.6619 36.5512 91.8952 40.3966C104.461 46.1055 114.266 40.639 117.598 37.1921C153.01 15.4017 165.908 39.4352 167.931 54.1758C168.764 69.8778 162.362 103.845 130.092 114.1C89.7534 126.917 18.358 108.331 6.93472 88.4637C-4.48854 68.596 0.152159 32.0649 6.93472 17.6448C13.7173 3.22465 47.6301 2.58376 54.4126 15.7221Z" fill="#E1E7FF"/>
<path opacity="0.27" d="M45.6742 47.4091C57.4427 52.0806 81.3624 46.936 91.8512 43.7798C105.454 40.6436 108.799 30.7659 108.771 26.219C119.352 -10.9894 146.63 -0.597665 158.947 9.24924C171.076 20.518 191.164 49.7345 174.485 76.4498C153.637 109.844 86.4986 138.037 63.3786 129.895C40.2586 121.753 16.9721 91.6554 11.4913 76.8545C6.0105 62.0536 30.9635 41.5698 45.6742 47.4091Z" fill="#A2B4FF"/>
</svg>
