<svg width="185" height="128" viewBox="0 0 185 128" fill="none" xmlns="http://www.w3.org/2000/svg">
<path opacity="0.34" d="M139.096 101.355C130.788 92.9357 106.882 89.5804 95.9682 88.9551C82.2729 87.2449 74.5394 95.382 72.3845 99.6643C45.063 131.007 25.5955 111.902 19.2769 98.4316C13.8083 83.6892 9.80989 49.3557 37.566 29.9612C72.2611 5.71794 145.953 2.21158 162.772 17.7789C179.591 33.3462 186.033 69.6029 183.85 85.3883C181.667 101.174 149.482 111.879 139.096 101.355Z" fill="#FFDDDD"/>
<path opacity="0.27" d="M106.671 114.601C101.797 102.915 81.411 89.3858 71.8274 84.0821C60.0837 76.5356 50.6774 81.0391 47.4422 84.2341C13.4198 102.643 1.80919 75.8613 0.256667 60.169C-0.147028 43.6181 6.73792 8.83693 37.5073 2.11943C75.969 -6.27743 143.033 22.0919 153.351 44.3266C163.668 66.5614 158.385 104.247 151.619 118.506C144.852 132.765 112.764 129.208 106.671 114.601Z" fill="#FFB3B3"/>
</svg>
