<svg width="28" height="28" viewBox="0 0 28 28" fill="none" xmlns="http://www.w3.org/2000/svg">
<mask id="mask0" mask-type="alpha" maskUnits="userSpaceOnUse" x="2" y="4" width="24" height="20">
<path fill-rule="evenodd" clip-rule="evenodd" d="M25.4333 21.3498L15.5167 13.7665C17.3833 13.1832 18.6667 11.4332 18.6667 9.33317C18.6667 6.7665 16.5667 4.6665 14 4.6665C11.55 4.6665 9.56667 6.53317 9.33333 8.98317L3.96667 4.78317C3.73333 4.6665 3.38333 4.6665 3.15 4.89984L2.45 5.83317C2.21667 6.0665 2.33333 6.4165 2.56667 6.64984L24.0333 23.2165C24.2667 23.4498 24.6167 23.3332 24.85 23.0998L25.55 22.1665C25.6667 21.9332 25.6667 21.5832 25.4333 21.3498ZM5.83333 20.0665V21.5832C5.83333 22.5165 6.65 23.3332 7.58333 23.3332H20.3L9.91667 15.2832C7.58333 15.6332 5.83333 17.6165 5.83333 20.0665Z" fill="#7C7F88"/>
</mask>
<g mask="url(#mask0)">
<path d="M28 0H0V28H28V0Z" fill="#7C7F88"/>
</g>
</svg>
