<svg width="13" height="9" viewBox="0 0 13 9" fill="none" xmlns="http://www.w3.org/2000/svg">
<path d="M12.8419 0.170207C12.8372 0.165544 12.8349 0.160881 12.8302 0.158549C12.8279 0.156218 12.8279 0.156218 12.8256 0.153886L12.8233 0.151554C12.8209 0.149223 12.8186 0.146891 12.814 0.14456C12.8116 0.139896 12.8116 0.139896 12.8093 0.139896C12.707 0.0512953 12.5767 0 12.4419 0H0.55814C0.42093 0 0.293023 0.0489637 0.190698 0.139896C0.188372 0.139896 0.188372 0.139896 0.186047 0.142228C0.183721 0.14456 0.17907 0.149223 0.176744 0.151554C0.174419 0.153886 0.172093 0.156218 0.169767 0.156218C0.0627907 0.26114 0 0.408031 0 0.559586V8.44041C0 8.59663 0.0651163 8.74586 0.17907 8.85078C0.281395 8.94637 0.416279 9 0.55814 9H12.4419C12.5837 9 12.7186 8.94637 12.8209 8.85078C12.9349 8.74586 13 8.59663 13 8.44041V0.559586C13 0.415026 12.9419 0.272798 12.8419 0.170207ZM11.5977 0.792746L7.34419 4.77746L6.5 5.56788L5.65581 4.77746L1.40233 0.792746H11.5977ZM0.823256 8.20725H0.790698V1.30337L4.49302 4.77047L0.823256 8.20725ZM1.98372 8.20725L2.4093 7.81088H2.40698L4.78372 5.5842L4.78837 5.58886L5.07907 5.31839L5.97907 6.16244C6.12558 6.3 6.31395 6.36762 6.50233 6.36762C6.6907 6.36762 6.87907 6.29767 7.02558 6.1601L7.92558 5.31839L8.21628 5.58886L8.22093 5.5842L10.5953 7.81088H10.593L11.0186 8.20725H1.98372ZM12.2093 8.20725H12.1767L8.50698 4.77047L12.2093 1.30337V8.20725Z" fill="#545662"/>
</svg>
