<svg width="10" height="10" viewBox="0 0 10 10" fill="none" xmlns="http://www.w3.org/2000/svg">
<mask id="mask0" mask-type="alpha" maskUnits="userSpaceOnUse" x="0" y="2" width="10" height="6">
<path fill-rule="evenodd" clip-rule="evenodd" d="M4.9927 2.34253C6.72306 2.34253 8.24184 3.26611 9.05617 4.648C9.18416 4.86518 9.18416 5.13472 9.05617 5.3519C8.24221 6.73314 6.72378 7.65738 4.9927 7.65738C3.26235 7.65738 1.74359 6.73379 0.929244 5.35192C0.801255 5.13473 0.801255 4.86519 0.929244 4.648C1.7432 3.26676 3.26162 2.34253 4.9927 2.34253ZM1.52649 4.99993C2.21841 6.17409 3.51152 6.96411 4.99269 6.96411C6.47386 6.96411 7.76698 6.17409 8.45889 4.99993C8.02575 4.26489 7.35699 3.68043 6.554 3.34604C6.80667 3.67657 6.95687 4.0896 6.95687 4.53777C6.95687 5.62256 6.07748 6.50195 4.99269 6.50195C3.9079 6.50195 3.02851 5.62256 3.02851 4.53777C3.02851 4.20334 3.11219 3.88847 3.2596 3.61284L3.25959 3.61345C3.25959 4.06012 3.62169 4.42223 4.06837 4.42223C4.51505 4.42223 4.87715 4.06012 4.87715 3.61345C4.87715 3.39435 4.78989 3.19574 4.64841 3.05009C3.31269 3.16183 2.16422 3.91771 1.52649 4.99993Z" fill="white"/>
</mask>
<g mask="url(#mask0)">
<rect width="10" height="10" fill="#545662"/>
</g>
</svg>
