<svg width="16" height="16" viewBox="0 0 16 16" fill="none" xmlns="http://www.w3.org/2000/svg">
<path fill-rule="evenodd" clip-rule="evenodd" d="M6.47977 8.67045L6.47979 1.60814C3.32333 1.97923 0.874512 4.66346 0.874512 7.91963C0.874512 11.4296 3.71987 14.2749 7.22979 14.2749C10.4859 14.2749 13.1701 11.8261 13.5413 8.66971L6.47977 8.67045ZM14.3351 7.91963C14.3351 8.17295 14.3218 8.42317 14.296 8.66964C13.9213 12.2412 10.9006 15.0249 7.22979 15.0249C3.30565 15.0249 0.124512 11.8438 0.124512 7.91963C0.124512 4.24881 2.90821 1.22815 6.47979 0.853465C6.72626 0.827609 6.97648 0.814352 7.22979 0.814352L7.22977 7.92038L14.3351 7.91963ZM14.2954 7.16964C14.3217 7.41776 14.335 7.6676 14.3351 7.91815C14.335 7.66535 14.3212 7.41561 14.2954 7.16964C14.2229 6.47898 14.0521 5.81778 13.7962 5.20048C13.4361 4.33196 12.9088 3.55034 12.2543 2.8958C11.5999 2.24124 10.8183 1.71377 9.94982 1.35359C9.33227 1.09748 8.67078 0.925955 7.97979 0.853465C7.73332 0.827609 7.48311 0.814352 7.22979 0.814352C7.4808 0.814352 7.73114 0.826991 7.97979 0.853465C8.65548 0.925403 9.31869 1.09494 9.94884 1.35595C10.8109 1.71303 11.5946 2.23602 12.2543 2.8958C12.9141 3.55559 13.4371 4.33925 13.7942 5.2013C14.0552 5.83142 14.2236 6.4942 14.2954 7.16964Z" fill="#7C7F88"/>
<path d="M7.93526 0.187988C8.86834 0.187988 9.79228 0.371772 10.6543 0.728846C11.5164 1.08592 12.2997 1.60929 12.9595 2.26908C13.6192 2.92886 14.1426 3.71214 14.4997 4.57419C14.8568 5.43625 15.0405 6.36019 15.0405 7.29327L7.93526 7.29327V0.187988Z" fill="#7C7F88"/>
</svg>
