<svg width="14" height="14" viewBox="0 0 14 14" fill="none" xmlns="http://www.w3.org/2000/svg">
<path d="M13.2835 5.5304L12.3008 5.36369C12.1985 5.03321 12.0668 4.71444 11.906 4.41028L12.4851 3.60017C12.7307 3.25507 12.6927 2.78421 12.3915 2.4859L11.52 1.61437C11.3562 1.4506 11.1398 1.35993 10.9087 1.35993C10.7274 1.35993 10.5548 1.4155 10.4086 1.52079L9.59557 2.09985C9.27972 1.93315 8.94924 1.7957 8.60706 1.69334L8.44329 0.722373C8.3731 0.304157 8.01337 0 7.58931 0H6.35805C5.93399 0 5.57426 0.304157 5.50407 0.722373L5.33445 1.71673C5.00689 1.81909 4.68811 1.95362 4.38396 2.1174L3.5797 1.53833C3.43347 1.43305 3.25799 1.37748 3.07667 1.37748C2.84562 1.37748 2.62628 1.46814 2.46543 1.63192L1.59098 2.50345C1.29267 2.80175 1.25172 3.27261 1.49739 3.61771L2.08231 4.43952C1.92145 4.74661 1.79277 5.06539 1.69334 5.39586L0.722373 5.55964C0.304157 5.62983 0 5.98955 0 6.41362V7.64487C0 8.06894 0.304157 8.42866 0.722373 8.49885L1.71673 8.66848C1.81909 8.99603 1.95362 9.31481 2.1174 9.61897L1.54126 10.4203C1.29559 10.7654 1.33361 11.2363 1.63484 11.5346L2.50637 12.4061C2.67015 12.5699 2.88657 12.6605 3.11761 12.6605C3.29894 12.6605 3.47149 12.605 3.61772 12.4997L4.43952 11.9148C4.73491 12.0698 5.04491 12.1955 5.36369 12.295L5.52747 13.2776C5.59766 13.6958 5.95739 14 6.38145 14H7.61563C8.03969 14 8.39942 13.6958 8.46961 13.2776L8.63631 12.295C8.96679 12.1926 9.28557 12.061 9.58972 11.9001L10.3998 12.4792C10.5461 12.5845 10.7215 12.6401 10.9029 12.6401C11.1339 12.6401 11.3503 12.5494 11.5141 12.3856L12.3856 11.5141C12.6839 11.2158 12.7249 10.7449 12.4792 10.3998L11.9001 9.5868C12.061 9.27972 12.1955 8.96094 12.295 8.63338L13.2776 8.46961C13.6958 8.39942 14 8.03969 14 7.61563V6.38437C14.0059 5.96031 13.7017 5.60058 13.2835 5.5304ZM13.2162 7.61563C13.2162 7.65365 13.1899 7.68582 13.1519 7.69166L11.9235 7.89639C11.7685 7.92271 11.6457 8.03677 11.6077 8.18592C11.4966 8.61583 11.3269 9.0282 11.0988 9.41132C11.0198 9.54585 11.0257 9.71255 11.1164 9.84124L11.8387 10.859C11.8592 10.8882 11.8563 10.9321 11.83 10.9584L10.9584 11.83C10.938 11.8504 10.9175 11.8534 10.9029 11.8534C10.8853 11.8534 10.8707 11.8475 10.859 11.8387L9.84416 11.1164C9.71841 11.0257 9.54878 11.0198 9.41425 11.0988C9.03113 11.3269 8.61876 11.4966 8.18885 11.6077C8.03677 11.6457 7.92271 11.7715 7.89931 11.9235L7.69167 13.1519C7.68582 13.1899 7.65365 13.2162 7.61563 13.2162H6.38438C6.34636 13.2162 6.31419 13.1899 6.30834 13.1519L6.10361 11.9235C6.07729 11.7685 5.96323 11.6457 5.81408 11.6077C5.39586 11.4995 4.99227 11.3328 4.615 11.1164C4.55358 11.0813 4.48339 11.0637 4.41613 11.0637C4.33716 11.0637 4.25528 11.0871 4.18801 11.1368L3.1644 11.8651C3.14978 11.8738 3.13516 11.8797 3.12054 11.8797C3.10884 11.8797 3.08544 11.8767 3.06497 11.8563L2.19344 10.9848C2.16712 10.9584 2.1642 10.9175 2.18467 10.8853L2.90412 9.87633C2.99478 9.74765 3.00063 9.57802 2.92166 9.44349C2.69355 9.0633 2.51807 8.65093 2.40694 8.22101C2.36599 8.07186 2.24316 7.9578 2.09108 7.93148L0.85398 7.72091C0.81596 7.71506 0.789639 7.68289 0.789639 7.64487V6.41362C0.789639 6.3756 0.81596 6.34343 0.85398 6.33758L2.07353 6.13286C2.22854 6.10654 2.35429 5.99248 2.39231 5.8404C2.50052 5.41049 2.66722 4.9952 2.89242 4.61207C2.97138 4.47754 2.96261 4.31084 2.87195 4.18508L2.14372 3.16148C2.12325 3.13223 2.12618 3.08836 2.1525 3.06204L3.02402 2.19052C3.0445 2.17004 3.06497 2.16712 3.07959 2.16712C3.09714 2.16712 3.11176 2.17297 3.12346 2.18174L4.13244 2.90119C4.26112 2.99185 4.43075 2.9977 4.56528 2.91874C4.94548 2.69062 5.35784 2.51515 5.78776 2.40401C5.93691 2.36307 6.05097 2.24023 6.07729 2.08816L6.28786 0.851055C6.29371 0.813035 6.32588 0.786714 6.3639 0.786714H7.59516C7.63317 0.786714 7.66534 0.813035 7.67119 0.851055L7.87592 2.07061C7.90224 2.22561 8.0163 2.35137 8.16837 2.38939C8.60999 2.50052 9.03113 2.67307 9.42302 2.90412C9.55755 2.98308 9.72425 2.97723 9.85294 2.88657L10.8619 2.16127C10.8765 2.1525 10.8912 2.14665 10.9058 2.14665C10.9175 2.14665 10.9409 2.14957 10.9614 2.17004L11.8329 3.04157C11.8592 3.06789 11.8621 3.10884 11.8417 3.14101L11.1193 4.15584C11.0286 4.2816 11.0228 4.45122 11.1017 4.58575C11.3299 4.96887 11.4995 5.38124 11.6106 5.81115C11.6486 5.96323 11.7744 6.07729 11.9265 6.10069L13.1548 6.30833C13.1928 6.31418 13.2191 6.34635 13.2191 6.38437L13.2162 7.61563Z" fill="#7C7F88"/>
<path d="M7.00157 3.97714C5.33455 3.97714 3.98047 5.33123 3.98047 6.99824C3.98047 8.66526 5.33455 10.0193 7.00157 10.0193C8.66858 10.0193 10.0227 8.66526 10.0227 6.99824C10.0227 5.33123 8.66858 3.97714 7.00157 3.97714ZM7.00157 9.2297C5.77032 9.2297 4.77011 8.22949 4.77011 6.99824C4.77011 5.76699 5.77032 4.76678 7.00157 4.76678C8.23282 4.76678 9.23303 5.76699 9.23303 6.99824C9.23303 8.22949 8.23282 9.2297 7.00157 9.2297Z" fill="#7C7F88"/>
</svg>
