<svg width="16" height="14" viewBox="0 0 16 14" fill="none" xmlns="http://www.w3.org/2000/svg">
<path d="M15.2652 7.26517C15.4116 7.11872 15.4116 6.88128 15.2652 6.73483L12.8787 4.34835C12.7322 4.2019 12.4948 4.2019 12.3483 4.34835C12.2019 4.4948 12.2019 4.73223 12.3483 4.87868L14.4697 7L12.3483 9.12132C12.2019 9.26777 12.2019 9.5052 12.3483 9.65165C12.4948 9.7981 12.7322 9.7981 12.8787 9.65165L15.2652 7.26517ZM6 7.375H15V6.625H6V7.375Z" fill="#7C7F88"/>
<path d="M11 4.28571V1.5C11 1.22386 10.7761 1 10.5 1H1.5C1.22386 1 1 1.22386 1 1.5V12.5C1 12.7761 1.22386 13 1.5 13H10.5C10.7761 13 11 12.7761 11 12.5V10.1429" stroke="#7C7F88"/>
</svg>
