<svg width="15" height="20" viewBox="0 0 15 20" fill="none" xmlns="http://www.w3.org/2000/svg">
<path d="M5.63604 2.99396C5.3599 2.99396 5.13604 3.21781 5.13604 3.49396L5.13604 7.99396C5.13604 8.2701 5.3599 8.49396 5.63604 8.49396C5.91218 8.49396 6.13604 8.2701 6.13604 7.99396L6.13604 3.99396L10.136 3.99396C10.4122 3.99396 10.636 3.7701 10.636 3.49396C10.636 3.21782 10.4122 2.99396 10.136 2.99396L5.63604 2.99396ZM12.3536 9.50436L5.98959 3.1404L5.28249 3.84751L11.6464 10.2115L12.3536 9.50436Z" fill="#7C7F88"/>
<path d="M9.36396 17.0061C9.6401 17.0061 9.86396 16.7822 9.86396 16.5061L9.86396 12.0061C9.86396 11.7299 9.6401 11.5061 9.36396 11.5061C9.08782 11.5061 8.86396 11.7299 8.86396 12.0061L8.86396 16.0061L4.86396 16.0061C4.58782 16.0061 4.36396 16.2299 4.36396 16.5061C4.36396 16.7822 4.58782 17.0061 4.86396 17.0061L9.36396 17.0061ZM2.64645 10.4957L9.01041 16.8596L9.71751 16.1525L3.35355 9.78854L2.64645 10.4957Z" fill="#B0B7C0"/>
</svg>
