<svg width="158" height="102" viewBox="0 0 158 102" fill="none" xmlns="http://www.w3.org/2000/svg">
<path opacity="0.6" d="M1.05697 60.2539C-0.310327 82.634 23.2755 92.5329 35.2393 94.6848C46.0637 96.8367 77.9672 99.419 118.986 92.5329C160.005 85.6467 154.308 48.3466 146.332 30.5574C125.395 0.860771 88.2219 0 67.7125 0C47.2031 0 2.76608 32.2789 1.05697 60.2539Z" fill="#F3E9F9"/>
<path opacity="0.2" d="M5.50012 25C-6.49993 44.5 7.00001 97 21 99.5C33.6667 102 62.4999 86.5 107.5 99.5C154.095 112.961 164.958 66.4474 152.5 47.5C128.5 11 120 7.99985 62.4999 0.499966C45.4999 -1.71739 16.527 7.08135 5.50012 25Z" fill="#E9C4FF"/>
<path d="M107.394 50.5V72.9999H47.2568V50.5L61.5116 39.25H93.3621L107.394 50.5Z" stroke="#C569FE" stroke-width="2" stroke-miterlimit="10"/>
<path d="M107.394 50.4999H88.9075V53.4249C88.9075 56.5749 86.2347 59.2749 83.1165 59.2749H71.3117C68.1935 59.2749 65.5208 56.5749 65.5208 53.4249V50.4999H47.2568" stroke="#C569FE" stroke-width="2" stroke-miterlimit="10"/>
<line x1="77.1245" y1="25.0556" x2="77.1245" y2="17.5484" stroke="#C569FE" stroke-width="1.75"/>
<line x1="86.3896" y1="26.7424" x2="91.698" y2="21.434" stroke="#C569FE" stroke-width="1.75"/>
<line x1="63.6041" y1="21.434" x2="68.9125" y2="26.7424" stroke="#C569FE" stroke-width="1.75"/>
</svg>
