<svg width="9" height="14" viewBox="0 0 9 14" fill="none" xmlns="http://www.w3.org/2000/svg">
<path fill-rule="evenodd" clip-rule="evenodd" d="M7.57143 0H1.35714C0.571429 0 0 0.557214 0 1.32338V12.6766C0 13.3731 0.571429 14 1.35714 14H7.64286C8.35714 14 9 13.4428 9 12.6766V1.32338C8.92857 0.557214 8.35714 0 7.57143 0ZM4.5 13.0945C4 13.0945 3.57143 12.6766 3.57143 12.1891C3.57143 11.7015 4 11.2836 4.5 11.2836C5 11.2836 5.42857 11.7015 5.42857 12.1891C5.42857 12.6766 4.92857 13.0945 4.5 13.0945ZM7.57143 10.0995C7.57143 10.3085 7.42857 10.4478 7.21429 10.4478H1.64286C1.42857 10.4478 1.28571 10.3085 1.28571 10.0995V1.60199C1.28571 1.39303 1.42857 1.25373 1.64286 1.25373H7.21429C7.42857 1.25373 7.57143 1.39303 7.57143 1.60199V10.0995Z" fill="#545662"/>
</svg>
