<svg width="12" height="12" viewBox="0 0 12 12" fill="none" xmlns="http://www.w3.org/2000/svg">
<path d="M12 6C12 2.68364 9.31636 0 6 0C2.68364 0 0 2.68364 0 6C0 7.74545 0.741818 9.31636 1.94182 10.4291L2.13818 10.6036C2.16 10.6036 2.16 10.6255 2.18182 10.6255C2.29091 10.7127 2.4 10.8 2.50909 10.8655C2.55273 10.8873 2.57455 10.9091 2.61818 10.9309C2.72727 11.0182 2.85818 11.0836 2.96727 11.1491C2.98909 11.1709 3.01091 11.1709 3.05455 11.1927C3.18545 11.2582 3.31636 11.3455 3.46909 11.4109C3.46909 11.4109 3.49091 11.4109 3.49091 11.4327C3.94909 11.6509 4.42909 11.8036 4.95273 11.8909C4.97455 11.8909 4.97455 11.8909 4.99636 11.8909C5.14909 11.9127 5.32364 11.9345 5.47636 11.9564C5.49818 11.9564 5.52 11.9564 5.54182 11.9564C5.67273 12 5.82545 12 6 12C6.15273 12 6.32727 12 6.48 11.9782C6.50182 11.9782 6.52364 11.9782 6.54545 11.9782C6.69818 11.9564 6.87273 11.9345 7.02545 11.9127C7.04727 11.9127 7.04727 11.9127 7.06909 11.9127C7.57091 11.8255 8.05091 11.6727 8.50909 11.4545C8.53091 11.4545 8.55273 11.4327 8.55273 11.4327C8.68364 11.3673 8.81455 11.3018 8.94545 11.2364C8.96727 11.2145 9.01091 11.1927 9.03273 11.1709C9.14182 11.1055 9.27273 11.04 9.38182 10.9527C9.42545 10.9309 9.46909 10.8873 9.49091 10.8655C9.57818 10.8 9.68727 10.7345 9.77455 10.6473C9.79636 10.6255 9.81818 10.6255 9.84 10.6036L10.0364 10.4291C11.2364 9.33818 12 7.74545 12 6ZM0.436364 6C0.436364 2.92364 2.92364 0.436364 6 0.436364C9.07636 0.436364 11.5636 2.92364 11.5636 6C11.5636 7.65818 10.8436 9.14182 9.68727 10.1673C9.62182 10.1236 9.55636 10.08 9.49091 10.0582L7.63636 9.14182C7.46182 9.05455 7.37455 8.90182 7.37455 8.70545V8.05091C7.41818 8.00727 7.46182 7.94182 7.50546 7.87636C7.74545 7.54909 7.94182 7.15636 8.07273 6.76364C8.35636 6.63273 8.53091 6.34909 8.53091 6.04364V5.28C8.53091 5.08364 8.46546 4.90909 8.33455 4.75636V3.70909C8.35636 3.6 8.37818 2.96727 7.92 2.42182C7.52727 1.98545 6.87273 1.74545 6 1.74545C5.12727 1.74545 4.47273 1.98545 4.05818 2.44364C3.6 2.96727 3.64364 3.6 3.64364 3.73091V4.75636C3.51273 4.90909 3.44727 5.08364 3.44727 5.28V6.04364C3.44727 6.28364 3.55636 6.50182 3.73091 6.65455C3.90545 7.35273 4.27636 7.87636 4.40727 8.05091V8.68364C4.40727 8.85818 4.32 9.03273 4.14545 9.12L2.44364 10.0364C2.37818 10.0582 2.33455 10.1018 2.26909 10.1455C1.15636 9.12 0.436364 7.63636 0.436364 6Z" fill="#545662"/>
</svg>
