<svg width="24" height="24" viewBox="0 0 24 24" fill="none" xmlns="http://www.w3.org/2000/svg">
<mask id="mask0" mask-type="alpha" maskUnits="userSpaceOnUse" x="2" y="4" width="20" height="17">
<path fill-rule="evenodd" clip-rule="evenodd" d="M21.4 12.5L17.8 11.1C17.7 11 17.4 11 17.1 11.1L13.5 12.5C13.2 12.6 12.9 12.9 12.9 13.3C12.9 16.8 15 19.2 17.1 20C17.4 20.1 17.7 20 17.8 20C19.4 19.4 22 17.2 22 13.3C22 12.9 21.8 12.6 21.4 12.5ZM17.5 18.5V12.6L20.5 13.8C20.3 16.4 18.6 17.9 17.5 18.5ZM9 12C11.2 12 13 10.2 13 8C13 5.8 11.2 4 9 4C6.8 4 5 5.8 5 8C5 10.2 6.8 12 9 12ZM12 13.3C12 13.2 12 13.2 12 13.1C11.9 13.1 11.8 13.1 11.8 13.1H11.3C10.6 13.4 9.8 13.6 9 13.6C8.2 13.6 7.4 13.3 6.7 13H6.2C3.9 13 2 14.9 2 17.2V18.5C2 19.3 2.7 20 3.5 20H14.5C14.7 20 14.9 20 15.1 19.9C13.4 18.5 12 16.2 12 13.3Z" fill="#7C7F88"/>
</mask>
<g mask="url(#mask0)">
<path d="M24 0H0V24H24V0Z" fill="#7C7F88"/>
</g>
</svg>
