<svg width="175" height="141" viewBox="0 0 175 141" fill="none" xmlns="http://www.w3.org/2000/svg">
<path opacity="0.44" d="M52.4693 17.0666C57.7016 28.328 78.7454 39.3835 88.6132 43.5035C100.73 49.6202 110.185 43.7632 113.398 40.0701C147.545 16.7232 159.983 42.4735 161.934 58.267C162.737 75.0905 156.564 111.484 125.446 122.471C86.5479 136.204 17.7023 116.291 6.68705 95.004C-4.32824 73.7171 0.146725 34.5767 6.68705 19.1266C13.2274 3.67642 45.929 2.98975 52.4693 17.0666Z" fill="#F3E9F9"/>
<path opacity="0.4" d="M44.6991 50.9074C56.0445 55.9236 79.1042 50.3994 89.2158 47.0103C102.329 43.6427 105.554 33.036 105.527 28.1537C115.728 -11.8003 142.026 -0.641771 153.899 9.93174C165.592 22.0321 184.958 53.4044 168.879 82.091C148.78 117.949 84.0558 148.223 61.767 139.48C39.4782 130.737 17.029 98.4185 11.7452 82.5255C6.4615 66.6325 30.5173 44.6372 44.6991 50.9074Z" fill="#F3E9F9"/>
<path d="M60 53C60 48.6 63.7784 45 68.3965 45H96" stroke="#545662" stroke-width="3" stroke-miterlimit="10"/>
<path d="M119 61.4823H68.411C63.785 61.4823 60 57.6653 60 53V95.5177C60 100.183 63.785 104 68.411 104H119V61.4823Z" fill="white" stroke="#545662" stroke-width="3" stroke-miterlimit="10"/>
<circle cx="113.854" cy="104.486" r="15.1463" fill="#13CE66"/>
<path d="M113.854 96.9131V112.059" stroke="white" stroke-width="4"/>
<path d="M106.281 104.486H121.427" stroke="white" stroke-width="4"/>
</svg>
