<svg width="128" height="128" viewBox="0 0 128 128" fill="none" xmlns="http://www.w3.org/2000/svg">
<path d="M0 12.8L10.7 6.4L21.3 0V12.8V25.6L10.7 19.2L0 12.8Z" fill="#F3E9F9"/>
<path d="M21.3 12.8L32 6.4L42.7 0V12.8V25.6L32 19.2L21.3 12.8Z" fill="#F3E9F9"/>
<path d="M42.7 12.8L53.3 6.4L64 0V12.8V25.6L53.3 19.2L42.7 12.8Z" fill="#F3E9F9"/>
<path d="M64 12.8L74.7 6.4L85.3 0V12.8V25.6L74.7 19.2L64 12.8Z" fill="#F3E9F9"/>
<path d="M85.3 12.8L96 6.4L106.7 0V12.8V25.6L96 19.2L85.3 12.8Z" fill="#F3E9F9"/>
<path d="M106.7 12.8L117.3 6.4L128 0V12.8V25.6L117.3 19.2L106.7 12.8Z" fill="#F3E9F9"/>
<path d="M0 38.4L10.7 32L21.3 25.6V38.4V51.2L10.7 44.8L0 38.4Z" fill="#F3E9F9"/>
<path d="M21.3 38.4L32 32L42.7 25.6V38.4V51.2L32 44.8L21.3 38.4Z" fill="#F3E9F9"/>
<path d="M42.7 38.4L53.3 32L64 25.6V38.4V51.2L53.3 44.8L42.7 38.4Z" fill="#F3E9F9"/>
<path d="M64 38.4L74.7 32L85.3 25.6V38.4V51.2L74.7 44.8L64 38.4Z" fill="#F3E9F9"/>
<path d="M85.3 38.4L96 32L106.7 25.6V38.4V51.2L96 44.8L85.3 38.4Z" fill="#F3E9F9"/>
<path d="M106.7 38.4L117.3 32L128 25.6V38.4V51.2L117.3 44.8L106.7 38.4Z" fill="#F3E9F9"/>
<path d="M0 64L10.7 57.5999L21.3 51.2V64V76.8L10.7 70.4L0 64Z" fill="#F3E9F9"/>
<path d="M21.3 64L32 57.5999L42.7 51.2V64V76.8L32 70.4L21.3 64Z" fill="#F3E9F9"/>
<path d="M42.7 64L53.3 57.5999L64 51.2V64V76.8L53.3 70.4L42.7 64Z" fill="#F3E9F9"/>
<path d="M64 64L74.7 57.5999L85.3 51.2V64V76.8L74.7 70.4L64 64Z" fill="#F3E9F9"/>
<path d="M85.3 64L96 57.5999L106.7 51.2V64V76.8L96 70.4L85.3 64Z" fill="#F3E9F9"/>
<path d="M106.7 64L117.3 57.5999L128 51.2V64V76.8L117.3 70.4L106.7 64Z" fill="#F3E9F9"/>
<path d="M0 89.6L10.7 83.2L21.3 76.8V89.6V102.4L10.7 96L0 89.6Z" fill="#F3E9F9"/>
<path d="M21.3 89.6L32 83.2L42.7 76.8V89.6V102.4L32 96L21.3 89.6Z" fill="#F3E9F9"/>
<path d="M42.7 89.6L53.3 83.2L64 76.8V89.6V102.4L53.3 96L42.7 89.6Z" fill="#F3E9F9"/>
<path d="M64 89.6L74.7 83.2L85.3 76.8V89.6V102.4L74.7 96L64 89.6Z" fill="#F3E9F9"/>
<path d="M85.3 89.6L96 83.2L106.7 76.8V89.6V102.4L96 96L85.3 89.6Z" fill="#F3E9F9"/>
<path d="M106.7 89.6L117.3 83.2L128 76.8V89.6V102.4L117.3 96L106.7 89.6Z" fill="#F3E9F9"/>
<path d="M0 115.2L10.7 108.8L21.3 102.4V115.2V128L10.7 121.6L0 115.2Z" fill="#F3E9F9"/>
<path d="M21.3 115.2L32 108.8L42.7 102.4V115.2V128L32 121.6L21.3 115.2Z" fill="#F3E9F9"/>
<path d="M42.7 115.2L53.3 108.8L64 102.4V115.2V128L53.3 121.6L42.7 115.2Z" fill="#F3E9F9"/>
<path d="M64 115.2L74.7 108.8L85.3 102.4V115.2V128L74.7 121.6L64 115.2Z" fill="#F3E9F9"/>
<path d="M85.3 115.2L96 108.8L106.7 102.4V115.2V128L96 121.6L85.3 115.2Z" fill="#F3E9F9"/>
<path d="M106.7 115.2L117.3 108.8L128 102.4V115.2V128L117.3 121.6L106.7 115.2Z" fill="#F3E9F9"/>
</svg>
