<svg width="23" height="21" viewBox="0 0 23 21" fill="none" xmlns="http://www.w3.org/2000/svg">
<path d="M22.2298 4.99023H17.3028V0.707166C17.2922 0.30173 16.9546 -0.0101433 16.5431 0.000252479H7.18486C6.99495 0.000252479 6.80505 0.073023 6.65734 0.197772C6.52018 0.332918 6.43578 0.520042 6.43578 0.707166V7.58918H3.4922C3.08073 7.58918 2.74312 7.86987 2.74312 8.26491V10.604H0.770184C0.358716 10.604 0 10.8846 0 11.2901V20.2928C0.0211009 20.6983 0.358716 21.0101 0.770184 20.9997H22.2298C22.6413 21.0101 22.9789 20.6983 23 20.2928V5.73873C22.9894 5.33329 22.6518 5.00063 22.2298 4.99023ZM15.8257 1.45566V19.5443H7.91284V8.33768C7.91284 8.31688 7.91284 8.2857 7.91284 8.26491C7.91284 8.24411 7.91284 8.21293 7.91284 8.19213V1.45566H15.8257ZM1.47706 12.0594H3.4922C3.90367 12.0594 4.22018 11.6955 4.22018 11.2901V9.04459H6.43578V19.5443H1.47706V12.0594ZM21.5229 19.5443H17.3028V6.44564H21.5229V19.5443Z" fill="#0D1E45"/>
</svg>
