<svg width="23" height="20" viewBox="0 0 23 20" fill="none" xmlns="http://www.w3.org/2000/svg">
<path d="M23 6.66667C22.9617 6.03704 22.195 5.55556 20.6233 5.14815C20.6617 5.03704 20.7 4.92593 20.7 4.81481V2.22222C20.5467 0.074074 11.4233 0 10.35 0C9.27667 0 0.153333 0.074074 0 2.22222V2.25926V4.81481C0 5.51852 0.958333 6.07407 2.33833 6.48148C2.33833 6.55556 2.3 6.59259 2.3 6.66667V6.7037V9.25926C0.805 9.62963 0.0383333 10.1111 0 10.7407V10.7778V13.3333C0 13.8148 0.46 14.2222 1.18833 14.5926C1.18833 14.6667 1.15 14.7407 1.15 14.8148V14.8519V17.4074C1.15 18.6296 4.025 19.4074 7.20667 19.7778C7.245 19.7778 7.245 19.7778 7.28333 19.7778C7.28333 19.7778 7.28333 19.7778 7.32167 19.7778C7.935 19.8519 8.54833 19.8889 9.16167 19.9259H9.2C9.2 19.9259 9.2 19.9259 9.23833 19.9259C10.005 19.963 10.81 20 11.5 20C12.19 20 12.995 19.963 13.7617 19.9259C13.7617 19.9259 13.7617 19.9259 13.8 19.9259H13.8383C14.4517 19.8889 15.065 19.8519 15.6783 19.7778C15.6783 19.7778 15.6783 19.7778 15.7167 19.7778C15.755 19.7778 15.755 19.7778 15.7933 19.7778C18.975 19.4074 21.85 18.6667 21.85 17.4074V14.8148C21.8117 14.3704 21.4283 14 20.6233 13.6667C20.6617 13.5556 20.7 13.4444 20.7 13.3333V10.9259C22.08 10.5185 23 9.96296 23 9.25926V6.66667ZM19.895 13.4444L19.78 13.5556C19.55 13.7407 19.2433 13.8889 18.7833 14.0741V12.2963C19.2433 12.1481 19.6267 11.963 19.9333 11.7778V13.3333C19.9333 13.3704 19.9333 13.4074 19.895 13.4444ZM11.3083 15.1852C11.27 15.1852 11.1933 15.1852 11.155 15.1852C11.0017 15.1852 10.8867 15.1852 10.7333 15.1852V13.3333C10.8483 13.3333 10.925 13.3333 11.04 13.3333C11.0783 13.3333 11.0783 13.3333 11.1167 13.3333C11.5 13.3333 11.8833 13.3333 12.2667 13.2963V15.1481C12.19 15.1481 12.1133 15.1481 12.0367 15.1481C11.8067 15.1481 11.5383 15.1852 11.3083 15.1852ZM9.66 15.1852C9.46833 15.1852 9.315 15.1852 9.12333 15.1852C9.085 15.1852 9.085 15.1852 9.04667 15.1852C8.855 15.1852 8.625 15.1852 8.43333 15.1481V13.2963C8.81667 13.2963 9.2 13.3333 9.58333 13.3333C9.62167 13.3333 9.62167 13.3333 9.66 13.3333C9.775 13.3333 9.85167 13.3333 9.96667 13.3333V15.1852C9.89 15.1852 9.81333 15.1852 9.73667 15.1852C9.69833 15.1852 9.66 15.1852 9.66 15.1852ZM2.72167 14.3333C2.72167 14.3333 2.68333 14.3333 2.72167 14.3333L2.68333 12.5185C3.02833 12.6296 3.41167 12.7037 3.83333 12.7778V14.5926C3.48833 14.5185 3.14333 14.4444 2.875 14.3704C2.79833 14.3704 2.76 14.3333 2.72167 14.3333ZM10.81 17.4074C10.925 17.4074 11.0017 17.4074 11.1167 17.4074V19.2593C10.58 19.2593 10.0817 19.2222 9.58333 19.2222V17.3704C9.96667 17.3704 10.35 17.4074 10.7333 17.4074C10.7717 17.4074 10.7717 17.4074 10.81 17.4074ZM12.2667 17.4074C12.65 17.4074 13.0333 17.4074 13.4167 17.3704V19.2222C12.9183 19.2593 12.42 19.2593 11.8833 19.2593V17.4074C11.9983 17.4074 12.075 17.4074 12.19 17.4074C12.2283 17.4074 12.2283 17.4074 12.2667 17.4074ZM15.3333 17.2222V19.0741C14.95 19.1111 14.5667 19.1481 14.1833 19.1852V17.3333C14.5667 17.2963 14.95 17.2593 15.3333 17.2222ZM16.1 17.1481C16.4833 17.1111 16.8667 17.037 17.25 17V18.8148C16.905 18.8889 16.5217 18.9259 16.1 19V17.1481ZM18.0167 16.8519C18.4383 16.7778 18.8217 16.7037 19.1667 16.5926V18.3704C18.8217 18.4815 18.4383 18.5556 18.0167 18.6296V16.8519ZM4.98333 16.8519V18.6667C4.56167 18.5926 4.17833 18.4815 3.83333 18.4074V16.6296C4.17833 16.7037 4.56167 16.7778 4.98333 16.8519ZM5.75 17C6.13333 17.0741 6.51667 17.1111 6.9 17.1481V18.963C6.47833 18.9259 6.095 18.8519 5.75 18.7778V17ZM7.66667 17.2222C8.05 17.2593 8.43333 17.2963 8.81667 17.2963V19.1481C8.43333 19.1111 8.05 19.0741 7.66667 19.037V17.2222ZM6.70833 15C6.67 15 6.63167 15 6.59333 15C6.555 15 6.555 15 6.51667 15V13.1481C6.9 13.1852 7.28333 13.2222 7.66667 13.2222V15.0741C7.36 15.0741 7.015 15.037 6.70833 15ZM5.75 13.0741V14.8889C5.32833 14.8519 4.945 14.7778 4.6 14.7037V12.8889C4.98333 12.963 5.36667 13.037 5.75 13.0741ZM13.3017 15.0741C13.225 15.0741 13.1483 15.0741 13.0333 15.0741V13.2222C13.4167 13.1852 13.8 13.1852 14.1833 13.1481V15C13.9533 15.037 13.685 15.037 13.455 15.0741C13.4167 15.0741 13.34 15.0741 13.3017 15.0741ZM14.95 14.9259V13.1111C15.3333 13.0741 15.7167 13 16.1 12.963V14.7778C15.755 14.8148 15.3717 14.8519 14.95 14.9259ZM16.8667 12.7778C17.2883 12.7037 17.6717 12.6296 18.0167 12.5185V14.2963C17.6717 14.4074 17.2883 14.4815 16.8667 14.5556V12.7778ZM11.615 11.1111C11.3083 11.1111 11.04 11.1111 10.7717 11.0741H10.7333V9.22222C11.1167 9.22222 11.5 9.25926 11.8833 9.25926C11.9217 9.25926 11.9217 9.25926 11.96 9.25926C12.075 9.25926 12.1517 9.25926 12.2667 9.25926V11.1111C12.075 11.1111 11.8833 11.1111 11.6917 11.1111C11.6917 11.1111 11.6533 11.1111 11.615 11.1111ZM2.68333 5.81481V4.03704C3.02833 4.14815 3.41167 4.22222 3.83333 4.2963V6.11111C3.795 6.11111 3.71833 6.07407 3.68 6.07407C3.48833 6.03704 3.25833 6 3.105 5.92593C2.95167 5.88889 2.79833 5.85185 2.68333 5.81481ZM9.66 4.81481C9.775 4.81481 9.85167 4.81481 9.96667 4.81481V6.66667C9.46833 6.66667 8.93167 6.66667 8.43333 6.62963V4.77778C8.81667 4.77778 9.2 4.81481 9.58333 4.81481C9.62167 4.81481 9.62167 4.81481 9.66 4.81481ZM11.1167 4.81481C11.5 4.81481 11.8833 4.77778 12.2667 4.77778V6.62963C12.19 6.62963 12.1517 6.62963 12.075 6.62963C11.8067 6.62963 11.5383 6.66667 11.3083 6.66667C11.27 6.66667 11.2317 6.66667 11.1933 6.66667C11.04 6.66667 10.925 6.66667 10.7717 6.66667V4.81481C10.8867 4.81481 10.9633 4.81481 11.0783 4.81481C11.0783 4.81481 11.0783 4.81481 11.1167 4.81481ZM19.8567 5L19.7033 5.11111C19.5117 5.25926 19.1667 5.40741 18.7833 5.55556V3.77778C19.2433 3.62963 19.6267 3.44444 19.9333 3.25926V4.81481C19.9333 4.85185 19.895 4.92593 19.8567 5ZM14.95 6.40741V4.59259C15.3333 4.55556 15.7167 4.48148 16.1 4.44444V6.25926C15.755 6.2963 15.3717 6.33333 14.95 6.40741ZM16.8667 6.07407V4.25926C17.2883 4.18519 17.6717 4.11111 18.0167 4V5.77778C17.6717 5.88889 17.2883 6 16.8667 6.07407ZM14.1833 4.62963V6.48148C13.8 6.51852 13.4167 6.55556 13.0333 6.59259V4.74074C13.4167 4.7037 13.8 4.66667 14.1833 4.62963ZM6.51667 6.48148V4.62963C6.9 4.66667 7.28333 4.7037 7.66667 4.7037V6.55556C7.28333 6.55556 6.9 6.51852 6.51667 6.48148ZM5.75 4.55556V6.37037C5.67333 6.37037 5.59667 6.37037 5.52 6.33333C5.48167 6.33333 5.405 6.33333 5.36667 6.2963C5.13667 6.25926 4.945 6.22222 4.715 6.18519C4.67667 6.18519 4.63833 6.18519 4.6 6.14815V4.33333C4.98333 4.44444 5.36667 4.51852 5.75 4.55556ZM9.89 11C9.85167 11 9.775 11 9.73667 11C9.50667 11 9.23833 10.963 9.00833 10.9259C8.97 10.9259 8.89333 10.9259 8.855 10.9259H8.81667V9.07407C9.2 9.11111 9.58333 9.14815 9.96667 9.14815V11C9.92833 11 9.89 11 9.89 11ZM7.32167 10.7407C7.16833 10.7037 7.015 10.7037 6.9 10.6667V8.85185C7.28333 8.92593 7.66667 8.96296 8.05 9V10.8148C7.82 10.8148 7.59 10.7778 7.32167 10.7407C7.36 10.7407 7.36 10.7407 7.32167 10.7407ZM6.13333 8.7037V10.5185C5.71167 10.4444 5.32833 10.3333 4.98333 10.2222V8.44444C5.32833 8.55555 5.71167 8.62963 6.13333 8.7037ZM4.21667 8.22222V10C3.60333 9.77778 3.22 9.55556 3.105 9.33333L3.06667 9.2963V9.25926V7.74074C3.37333 7.92593 3.75667 8.07407 4.21667 8.22222ZM13.4167 9.25926C13.8 9.25926 14.1833 9.25926 14.5667 9.22222V11.0741C14.0683 11.1111 13.5317 11.1111 13.0333 11.1111V9.25926C13.1483 9.25926 13.225 9.25926 13.34 9.25926C13.3783 9.25926 13.3783 9.25926 13.4167 9.25926ZM18.3617 10.6667C18.2083 10.7037 18.0167 10.7407 17.8633 10.7407C17.7483 10.7407 17.6717 10.7778 17.5567 10.7778C17.4417 10.7778 17.365 10.8148 17.25 10.8148V9C17.6333 8.96296 18.0167 8.88889 18.4 8.85185L18.3617 10.6667C18.3617 10.6667 18.4 10.6667 18.3617 10.6667ZM15.755 11C15.6017 11 15.4483 11.037 15.3333 11.037V9.18518C15.7167 9.14815 16.1 9.14815 16.4833 9.11111V10.963C16.2533 11 16.0233 11 15.7933 11.037C15.7933 11 15.7933 11 15.755 11ZM20.1633 10.2963C19.9717 10.3333 19.78 10.4074 19.55 10.4444C19.4733 10.4815 19.3583 10.4815 19.2433 10.5185C19.205 10.5185 19.1667 10.5185 19.1667 10.5185V8.7037C19.5883 8.62963 19.9717 8.55555 20.3167 8.44444V10.2222C20.2783 10.2593 20.2017 10.2963 20.1633 10.2963ZM22.2333 6.7037C22.195 6.96296 21.62 7.2963 20.5467 7.59259C19.205 8 17.0583 8.37037 14.375 8.48148C14.2217 8.48148 14.1067 8.48148 13.9533 8.48148C13.8383 8.48148 13.7233 8.48148 13.6083 8.48148C13.3017 8.48148 12.9567 8.48148 12.65 8.48148C12.3433 8.48148 11.9983 8.48148 11.6917 8.48148C11.5767 8.48148 11.4617 8.48148 11.3467 8.48148C11.1933 8.48148 11.0783 8.48148 10.925 8.48148C8.24167 8.37037 6.095 8 4.75333 7.59259C3.71833 7.2963 3.105 6.96296 3.06667 6.7037C3.06667 6.7037 3.06667 6.7037 3.06667 6.66667C3.105 6.66667 3.105 6.66667 3.14333 6.66667C3.29667 6.7037 3.45 6.74074 3.60333 6.77778C4.37 6.92593 5.21333 7.07407 6.095 7.14815C6.70833 7.22222 7.36 7.25926 8.01167 7.2963C8.47167 7.33333 8.97 7.33333 9.43 7.37037C9.73667 7.37037 10.005 7.37037 10.3117 7.37037C10.5033 7.37037 10.7333 7.37037 10.925 7.37037C13.7233 7.33333 16.2917 7 18.0933 6.51852C18.17 6.48148 18.2467 6.48148 18.3233 6.44444C18.3617 6.44444 18.4383 6.40741 18.4767 6.40741C18.63 6.37037 18.745 6.33333 18.86 6.25926C18.8983 6.25926 18.8983 6.25926 18.9367 6.22222C19.0517 6.18518 19.1667 6.14815 19.2433 6.11111C19.2817 6.11111 19.32 6.07407 19.32 6.07407C19.435 6.03704 19.5117 5.96296 19.6267 5.92593C19.665 5.88889 19.7033 5.88889 19.7417 5.85185C19.78 5.81481 19.8183 5.81481 19.895 5.77778C19.9333 5.77778 19.9333 5.74074 19.9717 5.74074C21.735 6.14815 22.195 6.55556 22.2333 6.7037ZM10.35 0.740741C16.675 0.740741 19.8567 1.7037 19.9333 2.25926C19.895 2.51852 19.2817 2.85185 18.2467 3.14815C16.905 3.55556 14.7583 3.92593 12.075 4.03704C11.9217 4.03704 11.8067 4.03704 11.6533 4.03704C11.5383 4.03704 11.4233 4.03704 11.3083 4.03704C11.0017 4.03704 10.6567 4.03704 10.35 4.03704C10.0433 4.03704 9.69833 4.03704 9.39167 4.03704C9.27667 4.03704 9.16167 4.03704 9.04667 4.03704C8.89333 4.03704 8.77833 4.03704 8.625 4.03704C5.94167 3.92593 3.795 3.55556 2.45333 3.14815C1.41833 2.85185 0.805 2.51852 0.766667 2.25926C0.843333 1.7037 4.025 0.740741 10.35 0.740741ZM0.766667 4.81481V3.2963C1.07333 3.48148 1.45667 3.66667 1.91667 3.81481V5.55556C1.18833 5.2963 0.766667 5.03704 0.766667 4.81481ZM2.60667 9.92593C2.645 9.96296 2.645 9.96296 2.60667 9.92593C3.14333 10.4444 4.255 10.8519 5.59667 11.1481C5.635 11.1481 5.67333 11.1481 5.67333 11.1852C5.78833 11.2222 5.865 11.2222 5.98 11.2593C7.20667 11.5185 8.70167 11.7037 10.3117 11.7778C10.8483 11.8148 11.3467 11.8148 11.9217 11.8519C12.1517 11.8519 12.3817 11.8519 12.6117 11.8519C12.88 11.8519 13.1483 11.8519 13.4167 11.8519C13.915 11.8519 14.4133 11.8148 14.9117 11.7778C16.5217 11.7037 18.055 11.4815 19.32 11.2222C19.0517 11.3704 18.6683 11.5185 18.17 11.6667C16.7517 12.1111 14.4517 12.4815 11.5383 12.5556C11.4617 12.5556 11.385 12.5556 11.27 12.5556C11.1933 12.5556 11.0783 12.5556 11.0017 12.5556C10.7717 12.5556 10.5033 12.5556 10.2733 12.5556C9.92833 12.5556 9.62167 12.5556 9.315 12.5556C9.2 12.5556 9.085 12.5556 8.97 12.5556C8.81667 12.5556 8.70167 12.5556 8.54833 12.5556C5.865 12.4444 3.71833 12.0741 2.37667 11.6667C1.30333 11.3704 0.728333 11 0.69 10.7778C0.805 10.6296 1.18833 10.2593 2.60667 9.92593ZM0.766667 13.3333V11.8148C1.07333 12 1.45667 12.1852 1.91667 12.3333V14.0741L1.68667 14C1.07333 13.7407 0.766667 13.5185 0.766667 13.3333ZM1.91667 17.4074V15.8889C2.22333 16.0741 2.60667 16.2593 3.06667 16.4074V18.1481C2.33833 17.8889 1.91667 17.6296 1.91667 17.4074ZM19.9333 18.1481V16.3704C20.3933 16.2222 20.7767 16.037 21.0833 15.8519V17.4074C21.0833 17.6296 20.6617 17.8889 19.9333 18.1481ZM21.0833 14.8519C21.045 15.1111 20.47 15.4444 19.3967 15.7407C18.055 16.1481 15.9083 16.5185 13.225 16.6296C13.0717 16.6296 12.9567 16.6296 12.8033 16.6296C12.6883 16.6296 12.5733 16.6296 12.4583 16.6296C12.1517 16.6296 11.8067 16.6296 11.5 16.6296C11.1933 16.6296 10.8483 16.6296 10.5417 16.6296C10.4267 16.6296 10.3117 16.6296 10.1967 16.6296C10.0433 16.6296 9.92833 16.6296 9.775 16.6296C7.09167 16.5185 4.945 16.1481 3.60333 15.7407C2.60667 15.4444 1.99333 15.1111 1.91667 14.8519C2.03167 14.8889 2.14667 14.9259 2.26167 14.963H2.3C2.415 15 2.49167 15.037 2.60667 15.037C2.645 15.037 2.68333 15.0741 2.72167 15.0741C2.79833 15.0741 2.83667 15.1111 2.91333 15.1111C4.29333 15.4444 6.095 15.7037 8.01167 15.8148C8.58667 15.8519 9.2 15.8519 9.81333 15.8889C9.96667 15.8889 10.12 15.8889 10.3117 15.8889C10.5417 15.8889 10.7333 15.8889 10.9633 15.8889C11.5383 15.8889 12.075 15.8519 12.6117 15.8148C13.2633 15.7778 13.915 15.7037 14.5283 15.6667C14.5283 15.6667 14.5283 15.6667 14.5667 15.6667C15.2567 15.5926 15.9083 15.4815 16.4833 15.3704C16.5983 15.3333 16.7133 15.3333 16.8667 15.2963C16.905 15.2963 16.905 15.2963 16.9433 15.2963C18.0933 15.0741 19.0517 14.7778 19.7417 14.4074C19.78 14.3704 19.8183 14.3704 19.8567 14.3333C19.895 14.2963 19.9333 14.2963 19.9717 14.2593C20.01 14.2222 20.0483 14.2222 20.0867 14.1852C20.8533 14.5185 21.045 14.7407 21.0833 14.8519ZM21.0833 10V8.22222C21.5433 8.07407 21.9267 7.88889 22.2333 7.7037V9.25926C22.2333 9.48148 21.8117 9.74074 21.0833 10Z" fill="#0D1E45"/>
</svg>
