<svg width="181" height="132" viewBox="0 0 181 132" fill="none" xmlns="http://www.w3.org/2000/svg">
<path opacity="0.44" d="M54.4126 15.7222C59.8387 26.2328 81.6619 36.5513 91.8952 40.3966C104.461 46.1055 114.266 40.639 117.598 37.1922C153.01 15.4017 165.908 39.4353 167.931 54.1759C168.764 69.8778 162.362 103.845 130.092 114.1C89.7534 126.918 18.358 108.332 6.93472 88.4638C-4.48854 68.596 0.152159 32.065 6.93472 17.6448C13.7173 3.2247 47.6301 2.5838 54.4126 15.7222Z" fill="#E1E7FF"/>
<path opacity="0.4" d="M45.6746 47.4091C57.4432 52.0806 81.3629 46.936 91.8516 43.7798C105.454 40.6436 108.799 30.7659 108.771 26.219C119.353 -10.9894 146.631 -0.597665 158.947 9.24924C171.076 20.518 191.164 49.7345 174.486 76.4498C153.638 109.844 86.4991 138.037 63.3791 129.895C40.2591 121.753 16.9726 91.6554 11.4918 76.8545C6.01099 62.0536 30.964 41.5698 45.6746 47.4091Z" fill="#E1E7FF"/>
</svg>
