<svg width="181" height="132" viewBox="0 0 181 132" fill="none" xmlns="http://www.w3.org/2000/svg">
<path opacity="0.44" d="M54.4126 16.3506C59.8387 26.8612 81.6619 37.1797 91.8952 41.025C104.461 46.7339 114.266 41.2674 117.598 37.8206C153.01 16.0301 165.908 40.0637 167.931 54.8043C168.764 70.5062 162.362 104.474 130.092 114.728C89.7534 127.546 18.358 108.96 6.93472 89.0922C-4.48854 69.2244 0.152159 32.6934 6.93472 18.2732C13.7173 3.8531 47.6301 3.2122 54.4126 16.3506Z" fill="#E1E7FF"/>
<path opacity="0.4" d="M45.6742 48.0375C57.4427 52.709 81.3624 47.5645 91.8512 44.4082C105.454 41.272 108.799 31.3943 108.771 26.8474C119.352 -10.361 146.63 0.0307531 158.947 9.87766C171.076 21.1465 191.164 50.3629 174.485 77.0782C153.637 110.472 86.4986 138.666 63.3786 130.523C40.2586 122.381 16.9721 92.2838 11.4913 77.4829C6.0105 62.682 30.9635 42.1982 45.6742 48.0375Z" fill="#E1E7FF"/>
<path d="M55 64.5177L105.589 64.5177C110.215 64.5177 114 68.3347 114 73L114 30.4823C114 25.817 110.215 22 105.589 22L55 22L55 64.5177Z" fill="white" stroke="#545662" stroke-width="3" stroke-miterlimit="10"/>
<path d="M114 65.4823H63.411C58.785 65.4823 55 61.6653 55 57L55 99.5177C55 104.183 58.785 108 63.411 108H114V65.4823Z" fill="white" stroke="#545662" stroke-width="3" stroke-miterlimit="10"/>
<circle cx="109.146" cy="103.486" r="15.1463" fill="#467AFF"/>
<path d="M102 102.778L108.364 109.142L118.364 99.1416" stroke="white" stroke-width="2"/>
</svg>
