<svg width="90" height="24" viewBox="0 0 90 24" fill="none" xmlns="http://www.w3.org/2000/svg">
<path d="M0.952 23V0.279999H7.192V17.56H17.496V23H0.952ZM29.6295 23.192C27.9015 23.192 26.3335 22.8613 24.9255 22.2C23.5175 21.5387 22.3122 20.6747 21.3095 19.608C20.3068 18.52 19.5282 17.2827 18.9735 15.896C18.4188 14.5093 18.1415 13.08 18.1415 11.608C18.1415 10.1147 18.4295 8.67467 19.0055 7.288C19.5815 5.90133 20.3815 4.68533 21.4055 3.64C22.4508 2.57333 23.6775 1.73067 25.0855 1.112C26.5148 0.471999 28.0722 0.151999 29.7575 0.151999C31.4855 0.151999 33.0535 0.482665 34.4615 1.144C35.8695 1.80533 37.0748 2.68 38.0775 3.768C39.0802 4.856 39.8482 6.09333 40.3815 7.48C40.9362 8.86667 41.2135 10.2853 41.2135 11.736C41.2135 13.2293 40.9255 14.6693 40.3495 16.056C39.7735 17.4213 38.9735 18.6373 37.9495 19.704C36.9255 20.7493 35.6988 21.592 34.2695 22.232C32.8615 22.872 31.3148 23.192 29.6295 23.192ZM24.4775 11.672C24.4775 12.44 24.5842 13.1867 24.7975 13.912C25.0108 14.616 25.3308 15.2453 25.7575 15.8C26.1842 16.3547 26.7175 16.8027 27.3575 17.144C28.0188 17.4853 28.7975 17.656 29.6935 17.656C30.5895 17.656 31.3682 17.4853 32.0295 17.144C32.6908 16.7813 33.2242 16.3227 33.6295 15.768C34.0562 15.192 34.3655 14.5413 34.5575 13.816C34.7708 13.0907 34.8775 12.3547 34.8775 11.608C34.8775 10.84 34.7708 10.104 34.5575 9.4C34.3442 8.67467 34.0135 8.04533 33.5655 7.512C33.1388 6.95733 32.5948 6.52 31.9335 6.2C31.2935 5.85867 30.5362 5.688 29.6615 5.688C28.7655 5.688 27.9868 5.85867 27.3255 6.2C26.6855 6.54133 26.1522 7 25.7255 7.576C25.2988 8.13067 24.9788 8.77067 24.7655 9.496C24.5735 10.2 24.4775 10.9253 24.4775 11.672ZM59.2823 21.112C57.6609 22.4773 55.7943 23.16 53.6823 23.16C52.2103 23.16 50.8023 22.904 49.4583 22.392C48.1143 21.8587 46.9409 21.0907 45.9383 20.088C44.9356 19.0853 44.1356 17.8587 43.5383 16.408C42.9409 14.9573 42.6423 13.304 42.6423 11.448C42.6423 9.848 42.9409 8.36533 43.5383 7C44.1356 5.61333 44.9569 4.41867 46.0023 3.416C47.0476 2.392 48.2743 1.592 49.6823 1.016C51.1116 0.418666 52.6476 0.119999 54.2903 0.119999C55.3143 0.119999 56.2956 0.237332 57.2343 0.471998C58.1729 0.685333 59.0369 1.016 59.8263 1.464C60.6369 1.89067 61.3623 2.41333 62.0023 3.032C62.6423 3.62933 63.1649 4.312 63.5703 5.08L58.9303 8.632C58.4823 7.736 57.8103 7.02133 56.9143 6.488C56.0183 5.93333 55.0689 5.656 54.0663 5.656C53.3196 5.656 52.6369 5.80533 52.0183 6.104C51.3996 6.40267 50.8663 6.81867 50.4183 7.352C49.9703 7.88533 49.6183 8.52533 49.3623 9.272C49.1063 9.99733 48.9783 10.7973 48.9783 11.672C48.9783 12.568 49.1063 13.3787 49.3623 14.104C49.6183 14.8293 49.9703 15.4587 50.4183 15.992C50.8876 16.504 51.4423 16.9093 52.0823 17.208C52.7223 17.4853 53.4369 17.624 54.2263 17.624C56.0396 17.624 57.6396 16.8773 59.0263 15.384H55.0903V10.904H64.4343V23H59.2823V21.112ZM77.7545 23.192C76.0265 23.192 74.4585 22.8613 73.0505 22.2C71.6425 21.5387 70.4372 20.6747 69.4345 19.608C68.4318 18.52 67.6532 17.2827 67.0985 15.896C66.5438 14.5093 66.2665 13.08 66.2665 11.608C66.2665 10.1147 66.5545 8.67467 67.1305 7.288C67.7065 5.90133 68.5065 4.68533 69.5305 3.64C70.5758 2.57333 71.8025 1.73067 73.2105 1.112C74.6398 0.471999 76.1972 0.151999 77.8825 0.151999C79.6105 0.151999 81.1785 0.482665 82.5865 1.144C83.9945 1.80533 85.1998 2.68 86.2025 3.768C87.2052 4.856 87.9732 6.09333 88.5065 7.48C89.0612 8.86667 89.3385 10.2853 89.3385 11.736C89.3385 13.2293 89.0505 14.6693 88.4745 16.056C87.8985 17.4213 87.0985 18.6373 86.0745 19.704C85.0505 20.7493 83.8238 21.592 82.3945 22.232C80.9865 22.872 79.4398 23.192 77.7545 23.192ZM72.6025 11.672C72.6025 12.44 72.7092 13.1867 72.9225 13.912C73.1358 14.616 73.4558 15.2453 73.8825 15.8C74.3092 16.3547 74.8425 16.8027 75.4825 17.144C76.1438 17.4853 76.9225 17.656 77.8185 17.656C78.7145 17.656 79.4932 17.4853 80.1545 17.144C80.8158 16.7813 81.3492 16.3227 81.7545 15.768C82.1812 15.192 82.4905 14.5413 82.6825 13.816C82.8958 13.0907 83.0025 12.3547 83.0025 11.608C83.0025 10.84 82.8958 10.104 82.6825 9.4C82.4692 8.67467 82.1385 8.04533 81.6905 7.512C81.2638 6.95733 80.7198 6.52 80.0585 6.2C79.4185 5.85867 78.6612 5.688 77.7865 5.688C76.8905 5.688 76.1118 5.85867 75.4505 6.2C74.8105 6.54133 74.2772 7 73.8505 7.576C73.4238 8.13067 73.1038 8.77067 72.8905 9.496C72.6985 10.2 72.6025 10.9253 72.6025 11.672Z" fill="#B0B7C0"/>
</svg>
