<svg xmlns="http://www.w3.org/2000/svg" viewBox="0 0 203.38 14.58"><defs><style>.cls-1{fill:#0d1e45;}</style></defs><title>Asset 7</title><g id="Layer_2" data-name="Layer 2"><g id="Layer_1-2" data-name="Layer 1"><path class="cls-1" d="M7.72,14,3.09,4.75v8.18a.76.76,0,0,0,.13.46.94.94,0,0,0,.46.25V14H0v-.32a.94.94,0,0,0,.46-.25.76.76,0,0,0,.13-.46V1.64a.75.75,0,0,0-.13-.45A.94.94,0,0,0,0,.94V.63H4.83V.94a.51.51,0,0,0-.43.53,1,1,0,0,0,.13.45L8,8.81,11.41,2a1.79,1.79,0,0,0,.23-.65c0-.27-.15-.42-.46-.45V.63h4.74V.94a.9.9,0,0,0-.46.25.69.69,0,0,0-.13.45V12.93a.7.7,0,0,0,.13.46.9.9,0,0,0,.46.25V14H12v-.32a.87.87,0,0,0,.45-.25.68.68,0,0,0,.13-.46V4.75Z"/><path class="cls-1" d="M27,10.56h-5.7l-.84,1.87a1.62,1.62,0,0,0-.18.62c0,.28.21.48.62.59V14H16.73v-.32a1,1,0,0,0,.56-.27,2.65,2.65,0,0,0,.44-.76L22.34,2.36a1.94,1.94,0,0,0,.22-.78A.68.68,0,0,0,22,.94V.63h4.44V.94q-.54.17-.54.57a1.49,1.49,0,0,0,.18.65l4.77,10.27a3.56,3.56,0,0,0,.53.9,1.18,1.18,0,0,0,.62.31V14H27.41v-.32c.41-.07.61-.27.61-.6a1.68,1.68,0,0,0-.18-.61Zm-.79-1.83L24.16,4,22.09,8.73Z"/><path class="cls-1" d="M44.35,1.75,42.86,4.89l-.26-.15c0-.07,0-.12,0-.16,0-.22-.18-.46-.53-.71a6.26,6.26,0,0,0-3.84-1.21,5.33,5.33,0,0,0-1.72.25,2.11,2.11,0,0,0-.88.59,1.28,1.28,0,0,0-.33.84,1,1,0,0,0,.85,1,12.64,12.64,0,0,0,1.89.29l1.45.16a10.67,10.67,0,0,1,2.08.4,4.74,4.74,0,0,1,1.4.71,3.28,3.28,0,0,1,1,1.26,4.06,4.06,0,0,1-.49,4.16,4.48,4.48,0,0,1-2.4,1.48,9,9,0,0,1-2.59.36,10.41,10.41,0,0,1-4.91-1.27,2.46,2.46,0,0,0-.62-.25.76.76,0,0,0-.38.21l-.26-.15,1.36-3.27.26.14v.13a1.09,1.09,0,0,0,.4.81,4.89,4.89,0,0,0,1.84,1,7.39,7.39,0,0,0,2.37.41,4.57,4.57,0,0,0,2.08-.43,2.14,2.14,0,0,0,.77-.65,1.44,1.44,0,0,0,.28-.85A1,1,0,0,0,41,9.05a8.36,8.36,0,0,0-1.89-.36l-1.41-.16a16,16,0,0,1-2-.3,4.62,4.62,0,0,1-1.18-.45,3.09,3.09,0,0,1-1.31-1.32,3.71,3.71,0,0,1-.43-1.82,3.79,3.79,0,0,1,1.09-2.79A5.77,5.77,0,0,1,38.17.39,9.28,9.28,0,0,1,40.4.65a15.1,15.1,0,0,1,2.59,1,2.81,2.81,0,0,0,.65.22.72.72,0,0,0,.45-.22Z"/><path class="cls-1" d="M52.61,2.82V12.93a.7.7,0,0,0,.13.46.9.9,0,0,0,.46.25V14H49.29v-.32a.86.86,0,0,0,.45-.25.7.7,0,0,0,.13-.46V2.82H46a.61.61,0,0,0-.42.14,1,1,0,0,0-.24.49H45V0h.29a1.16,1.16,0,0,0,.24.49A.61.61,0,0,0,46,.63H56.49a.6.6,0,0,0,.43-.14A1,1,0,0,0,57.16,0h.3V3.45h-.3A1,1,0,0,0,56.92,3a.6.6,0,0,0-.43-.14Z"/><path class="cls-1" d="M61.62,8.11v3.65h8.06a.61.61,0,0,0,.42-.14,1,1,0,0,0,.24-.49h.29v3.45h-.29a1,1,0,0,0-.24-.49.6.6,0,0,0-.42-.13H58.3v-.32a.94.94,0,0,0,.46-.25.76.76,0,0,0,.12-.46V1.65a.76.76,0,0,0-.12-.46A.94.94,0,0,0,58.3.94V.63H69.46a.61.61,0,0,0,.42-.14A1.06,1.06,0,0,0,70.12,0h.29V3.45h-.29A1,1,0,0,0,69.88,3a.61.61,0,0,0-.42-.14H61.62V6h5.09a.61.61,0,0,0,.42-.14,1,1,0,0,0,.24-.49h.29V8.73h-.29a1,1,0,0,0-.24-.48.56.56,0,0,0-.42-.14Z"/><path class="cls-1" d="M75.31,8.52v4.42a.67.67,0,0,0,.13.45.87.87,0,0,0,.46.25V14H72v-.32a.85.85,0,0,0,.46-.25.69.69,0,0,0,.13-.45V1.65a.7.7,0,0,0-.13-.46A.85.85,0,0,0,72,.94V.63h7.84A11.5,11.5,0,0,1,82.1.8a3.84,3.84,0,0,1,1.46.62,3,3,0,0,1,1.08,1.37A4.69,4.69,0,0,1,85,4.59c0,2.17-1.13,3.45-3.4,3.82L84,12.09A8,8,0,0,0,85,13.33a1.13,1.13,0,0,0,.73.31V14H81.15v-.32c.31-.05.47-.17.47-.35a2.47,2.47,0,0,0-.43-.85L78.65,8.52Zm0-2.2h4.22a9.92,9.92,0,0,0,1.32-.06A2.13,2.13,0,0,0,81.56,6a1.54,1.54,0,0,0,.7-1.45,1.51,1.51,0,0,0-.7-1.44,1.69,1.69,0,0,0-.7-.25,9.79,9.79,0,0,0-1.33-.06H75.31Z"/><path class="cls-1" d="M102.9,9.38l1.75,2.77-.24.18a.68.68,0,0,0-.42-.25,3.14,3.14,0,0,0-.93.46,12.07,12.07,0,0,1-2.66,1.31,8.45,8.45,0,0,1-2.56.34A7.68,7.68,0,0,1,93,12.7a6.17,6.17,0,0,1-1.76-2.16,7.1,7.1,0,0,1-.75-3.25A6.83,6.83,0,0,1,91.8,3.08a7.06,7.06,0,0,1,6-2.69,8.67,8.67,0,0,1,2.55.33A12.52,12.52,0,0,1,103.06,2a3.14,3.14,0,0,0,.93.46.68.68,0,0,0,.42-.25l.24.17L102.9,5.2,102.66,5a2.54,2.54,0,0,0,0-.26.73.73,0,0,0-.23-.53,3.49,3.49,0,0,0-.81-.6,6.59,6.59,0,0,0-3.44-1A5,5,0,0,0,94.76,3.8a4.45,4.45,0,0,0-1.5,3.49,4.45,4.45,0,0,0,1.5,3.49,5,5,0,0,0,3.43,1.14,6.59,6.59,0,0,0,3.44-1,4.19,4.19,0,0,0,.81-.6.77.77,0,0,0,.23-.54,2.36,2.36,0,0,0,0-.25Z"/><path class="cls-1" d="M112.48.39a7.1,7.1,0,0,1,5.2,1.89,6.79,6.79,0,0,1,2,5.09,7,7,0,0,1-1,3.58q-1.89,3.24-6.23,3.24a7,7,0,0,1-5.17-1.89,6.58,6.58,0,0,1-1.57-2.41,7.31,7.31,0,0,1-.47-2.6,7.22,7.22,0,0,1,1-3.67Q108.1.45,112.48.39Zm0,2.27a4.15,4.15,0,0,0-3,1.13,4.6,4.6,0,0,0-1.41,3.5,4.6,4.6,0,0,0,1.41,3.5,4.18,4.18,0,0,0,3,1.13,4.14,4.14,0,0,0,3-1.13,4.62,4.62,0,0,0,1.09-1.65,5,5,0,0,0,.33-1.79,4.56,4.56,0,0,0-1.42-3.56A4.33,4.33,0,0,0,112.49,2.66Z"/><path class="cls-1" d="M124.29,8.52v4.42a.67.67,0,0,0,.13.45.87.87,0,0,0,.46.25V14H121v-.32a.94.94,0,0,0,.46-.25.75.75,0,0,0,.12-.45V1.65a.76.76,0,0,0-.12-.46A.94.94,0,0,0,121,.94V.63h7.84a11.46,11.46,0,0,1,2.27.17,3.78,3.78,0,0,1,1.46.62,3,3,0,0,1,1.09,1.37,4.88,4.88,0,0,1,.34,1.8c0,2.17-1.14,3.45-3.41,3.82L133,12.09a8,8,0,0,0,.94,1.24,1.15,1.15,0,0,0,.73.31V14h-4.52v-.32c.31-.05.46-.17.46-.35a2.47,2.47,0,0,0-.43-.85l-2.54-3.92Zm0-2.2h4.22a9.72,9.72,0,0,0,1.32-.06,2.06,2.06,0,0,0,.71-.24,1.52,1.52,0,0,0,.7-1.45,1.5,1.5,0,0,0-.7-1.44,1.64,1.64,0,0,0-.7-.25,9.79,9.79,0,0,0-1.33-.06h-4.22Z"/><path class="cls-1" d="M139,8.11v3.65H147a.61.61,0,0,0,.42-.14,1,1,0,0,0,.24-.49H148v3.45h-.29a1,1,0,0,0-.24-.49A.6.6,0,0,0,147,14H135.64v-.32a.94.94,0,0,0,.46-.25.76.76,0,0,0,.12-.46V1.65a.76.76,0,0,0-.12-.46.94.94,0,0,0-.46-.25V.63H146.8a.61.61,0,0,0,.42-.14,1.06,1.06,0,0,0,.24-.49h.29V3.45h-.29a1,1,0,0,0-.24-.49.61.61,0,0,0-.42-.14H139V6h5.09a.61.61,0,0,0,.42-.14,1,1,0,0,0,.24-.49H145V8.73h-.29a1,1,0,0,0-.24-.48.56.56,0,0,0-.42-.14Z"/><path class="cls-1" d="M165.64,9.38l1.74,2.77-.24.18a.68.68,0,0,0-.42-.25,3.14,3.14,0,0,0-.93.46,12.26,12.26,0,0,1-2.65,1.31,8.51,8.51,0,0,1-2.57.34,7.63,7.63,0,0,1-4.86-1.49,6.2,6.2,0,0,1-1.77-2.16,7.22,7.22,0,0,1-.74-3.25,6.82,6.82,0,0,1,1.33-4.21A7.06,7.06,0,0,1,160.58.39a8.67,8.67,0,0,1,2.55.33A12.52,12.52,0,0,1,165.79,2a3.14,3.14,0,0,0,.93.46.68.68,0,0,0,.42-.25l.24.17L165.64,5.2,165.39,5c0-.1,0-.19,0-.26a.77.77,0,0,0-.23-.53,3.6,3.6,0,0,0-.82-.6,6.57,6.57,0,0,0-3.44-1A4.94,4.94,0,0,0,157.5,3.8,4.42,4.42,0,0,0,156,7.29a4.42,4.42,0,0,0,1.51,3.49,4.94,4.94,0,0,0,3.42,1.14,6.57,6.57,0,0,0,3.44-1,4.33,4.33,0,0,0,.82-.6.81.81,0,0,0,.23-.54c0-.07,0-.15,0-.25Z"/><path class="cls-1" d="M175.21.39a7.08,7.08,0,0,1,5.2,1.89,6.79,6.79,0,0,1,2,5.09,7,7,0,0,1-1,3.58q-1.91,3.24-6.24,3.24a7,7,0,0,1-5.17-1.89,6.44,6.44,0,0,1-1.56-2.41,7.09,7.09,0,0,1-.47-2.6,7.21,7.21,0,0,1,1-3.67C170.22,1.51,172.3.43,175.21.39Zm0,2.27a4.17,4.17,0,0,0-3,1.13,4.6,4.6,0,0,0-1.41,3.5,4.6,4.6,0,0,0,1.41,3.5,4.56,4.56,0,0,0,6,0,4.47,4.47,0,0,0,1.08-1.65,5,5,0,0,0,.33-1.79,4.59,4.59,0,0,0-1.41-3.56A4.36,4.36,0,0,0,175.22,2.66Z"/><path class="cls-1" d="M184.29,12.93V1.64a.69.69,0,0,0-.13-.45.94.94,0,0,0-.46-.25V.63h3.91V.94a.87.87,0,0,0-.46.25.73.73,0,0,0-.13.45V12.93a.68.68,0,0,0,.14.46.87.87,0,0,0,.45.25V14H183.7v-.32a.94.94,0,0,0,.46-.25A.7.7,0,0,0,184.29,12.93Z"/><path class="cls-1" d="M192.35,4.82v8.11a.7.7,0,0,0,.13.46.86.86,0,0,0,.45.25V14h-3.68v-.32a.9.9,0,0,0,.46-.25.7.7,0,0,0,.13-.46V1.64a.69.69,0,0,0-.13-.45.9.9,0,0,0-.46-.25V.63h4.26V.94a.45.45,0,0,0-.39.45.76.76,0,0,0,.26.51l6.91,7.65V1.64a.75.75,0,0,0-.13-.45.94.94,0,0,0-.46-.25V.63h3.68V.94a.94.94,0,0,0-.46.25.75.75,0,0,0-.13.45V12.93a.76.76,0,0,0,.13.46.94.94,0,0,0,.46.25V14h-3.95v-.32q.39-.09.39-.42c0-.13-.15-.36-.45-.68Z"/></g></g></svg>