<svg width="30" height="26" viewBox="0 0 30 26" fill="none" xmlns="http://www.w3.org/2000/svg">
<path fill-rule="evenodd" clip-rule="evenodd" d="M25.5866 16H23.4879C22.2368 19.5455 18.8634 22 15 22C11.1366 22 7.76321 19.5455 6.51215 16H4.41344C5.72877 20.6604 10.0145 24 15 24C19.9855 24 24.2712 20.6604 25.5866 16V16ZM27.6521 16H29H30V15V10H27.6521C26.2857 4.20751 21.0844 0 15 0C8.91562 0 3.71432 4.20751 2.34792 10H1H0V11V15V16H1H2.34792C3.71432 21.7925 8.91562 26 15 26C21.0844 26 26.2857 21.7925 27.6521 16V16ZM21.3274 16H8.67259C9.80746 18.3932 12.2437 20 15 20C17.7563 20 20.1925 18.3932 21.3274 16V16ZM25.5866 10H23.4879C22.2368 6.45447 18.8634 4 15 4C11.1366 4 7.76321 6.45447 6.51215 10H4.41344C5.72877 5.33962 10.0145 2 15 2C19.9855 2 24.2712 5.33962 25.5866 10V10ZM21.3274 10H8.67259C9.80746 7.60682 12.2437 6 15 6C17.7563 6 20.1925 7.60682 21.3274 10V10ZM2 12H28V14H2V12V12Z" fill="#C569FE"/>
</svg>
