<?xml version="1.0" encoding="utf-8"?>
<!-- Generator: Adobe Illustrator 23.0.1, SVG Export Plug-In . SVG Version: 6.00 Build 0)  -->
<svg version="1.1" id="Layer_1" xmlns="http://www.w3.org/2000/svg" xmlns:xlink="http://www.w3.org/1999/xlink" x="0px" y="0px"
	 viewBox="0 0 205.1 129.5" style="enable-background:new 0 0 205.1 129.5;" xml:space="preserve">
<style type="text/css">
	.st0{fill:#0D1E45;}
	.st1{fill:url(#SVGID_1_);}
</style>
<polygon class="st0" points="134.5,54.9 134.5,87.3 166.5,87.3 166.5,32.2 "/>
<linearGradient id="SVGID_1_" gradientUnits="userSpaceOnUse" x1="24.8145" y1="62.8128" x2="150.0035" y2="153.762" gradientTransform="matrix(1 0 0 -1 0 131)">
	<stop  offset="0.57" style="stop-color:#0D1E45"/>
	<stop  offset="0.6" style="stop-color:#132346"/>
	<stop  offset="0.64" style="stop-color:#25314A"/>
	<stop  offset="0.69" style="stop-color:#434851"/>
	<stop  offset="0.74" style="stop-color:#6B685A"/>
	<stop  offset="0.79" style="stop-color:#A09165"/>
	<stop  offset="0.85" style="stop-color:#DFC273"/>
	<stop  offset="0.88" style="stop-color:#FFDB7A"/>
	<stop  offset="0.96" style="stop-color:#FFC847"/>
	<stop  offset="1" style="stop-color:#FFBF31"/>
</linearGradient>
<polyline class="st1" points="134.5,46.2 102.6,68.8 102.5,68.8 70.5,46.1 70.5,87.1 38.5,87.1 38.5,0 62,0 102.5,28.8 143.1,0 
	166.5,0 166.5,23.4 134.5,46.2 "/>
<path class="st0" d="M8.8,124.5l-4.6-9.2v8.2c0,0.2,0,0.4,0.1,0.5c0.1,0.1,0.2,0.2,0.5,0.3v0.3H1.1v-0.3c0.2-0.1,0.4-0.2,0.5-0.3
	c0.1-0.1,0.1-0.3,0.1-0.5v-11.3c0-0.2,0-0.3-0.1-0.4c-0.1-0.1-0.2-0.2-0.5-0.3v-0.3H6v0.3c-0.3,0.1-0.4,0.3-0.4,0.5
	c0,0.1,0,0.3,0.1,0.4l3.4,6.9l3.5-6.8c0.2-0.3,0.2-0.5,0.2-0.7c0-0.3-0.2-0.4-0.5-0.4v-0.3H17v0.3c-0.2,0.1-0.4,0.2-0.5,0.3
	c-0.1,0.1-0.1,0.3-0.1,0.4v11.3c0,0.2,0,0.4,0.1,0.5c0.1,0.1,0.2,0.2,0.5,0.3v0.3h-3.9v-0.3c0.2-0.1,0.4-0.1,0.5-0.2
	c0.1-0.1,0.1-0.3,0.1-0.5v-8.2L8.8,124.5z M28.1,121.1h-5.7l-0.8,1.9c-0.1,0.3-0.2,0.5-0.2,0.6c0,0.3,0.2,0.5,0.6,0.6v0.3h-4.1v-0.3
	c0.2-0.1,0.4-0.1,0.6-0.3c0.1-0.1,0.3-0.4,0.4-0.8l4.6-10.2c0.1-0.3,0.2-0.6,0.2-0.8c0-0.3-0.2-0.5-0.5-0.6v-0.3h4.4v0.3
	c-0.4,0.1-0.5,0.3-0.5,0.6c0,0.2,0.1,0.4,0.2,0.6L32,123c0.2,0.4,0.4,0.7,0.5,0.9c0.2,0.2,0.4,0.3,0.6,0.3v0.3h-4.6v-0.3
	c0.4-0.1,0.6-0.3,0.6-0.6c0-0.1-0.1-0.3-0.2-0.6L28.1,121.1z M27.3,119.3l-2-4.7l-2.1,4.7H27.3z M45.5,112.3l-1.5,3.1l-0.3-0.2
	c0-0.1,0-0.1,0-0.2c0-0.2-0.2-0.5-0.5-0.7c-1.1-0.8-2.4-1.2-3.8-1.2c-0.6,0-1.2,0.1-1.7,0.3c-0.4,0.1-0.7,0.3-0.9,0.6
	c-0.2,0.3-0.3,0.5-0.3,0.8c0,0.5,0.3,0.8,0.9,1c0.3,0.1,0.9,0.2,1.9,0.3l1.4,0.2c0.9,0.1,1.5,0.2,2.1,0.4c0.5,0.2,1,0.4,1.4,0.7
	c0.4,0.3,0.7,0.7,1,1.3c0.2,0.5,0.4,1.1,0.4,1.7c0,0.9-0.3,1.8-0.9,2.5c-0.5,0.7-1.3,1.2-2.4,1.5c-0.8,0.2-1.7,0.4-2.6,0.4
	c-1.7,0-3.3-0.4-4.9-1.3c-0.3-0.2-0.5-0.3-0.6-0.3c-0.1,0-0.2,0.1-0.4,0.2l-0.3-0.1l1.4-3.3l0.3,0.1c0,0.1,0,0.1,0,0.1
	c0,0.3,0.1,0.6,0.4,0.8c0.4,0.4,1,0.7,1.8,1c0.8,0.3,1.6,0.4,2.4,0.4c0.8,0,1.5-0.1,2.1-0.4c0.3-0.2,0.6-0.4,0.8-0.6
	c0.2-0.3,0.3-0.5,0.3-0.8c0-0.4-0.2-0.8-0.7-0.9c-0.3-0.1-0.9-0.3-1.9-0.4l-1.4-0.2c-0.9-0.1-1.6-0.2-2-0.3
	c-0.4-0.1-0.8-0.2-1.2-0.5c-0.6-0.3-1-0.7-1.3-1.3c-0.3-0.5-0.4-1.1-0.4-1.8c0-1.1,0.4-2.1,1.1-2.8c1-1,2.4-1.5,4.3-1.5
	c0.8,0,1.5,0.1,2.2,0.3c0.7,0.2,1.6,0.5,2.6,1c0.4,0.2,0.6,0.2,0.7,0.2c0.1,0,0.3-0.1,0.4-0.2L45.5,112.3z M53.7,113.4v10.1
	c0,0.2,0,0.4,0.1,0.5c0.1,0.1,0.2,0.2,0.5,0.3v0.3h-3.9v-0.3c0.2-0.1,0.4-0.2,0.5-0.3c0.1-0.1,0.1-0.3,0.1-0.5v-10.1h-3.9
	c-0.2,0-0.3,0-0.4,0.1c-0.1,0.1-0.2,0.3-0.2,0.5h-0.3v-3.4h0.3c0.1,0.2,0.1,0.4,0.2,0.5s0.2,0.1,0.4,0.1h10.5c0.2,0,0.3,0,0.4-0.1
	c0.1-0.1,0.2-0.3,0.2-0.5h0.3v3.4h-0.3c-0.1-0.2-0.1-0.4-0.2-0.5c-0.1-0.1-0.2-0.1-0.4-0.1H53.7z M62.8,118.6v3.7h8.1
	c0.2,0,0.3,0,0.4-0.1c0.1-0.1,0.2-0.3,0.2-0.5h0.3v3.4h-0.3c-0.1-0.2-0.1-0.4-0.2-0.5c-0.1-0.1-0.2-0.1-0.4-0.1H59.4v-0.3
	c0.2-0.1,0.4-0.2,0.5-0.3c0.1-0.1,0.1-0.3,0.1-0.5v-11.3c0-0.2,0-0.4-0.1-0.5c-0.1-0.1-0.2-0.2-0.5-0.3v-0.3h11.2
	c0.2,0,0.3,0,0.4-0.1c0.1-0.1,0.2-0.3,0.2-0.5h0.3v3.4h-0.3c-0.1-0.2-0.1-0.4-0.2-0.5c-0.1-0.1-0.2-0.1-0.4-0.1h-7.8v3.2h5.1
	c0.2,0,0.3,0,0.4-0.1c0.1-0.1,0.2-0.3,0.2-0.5h0.3v3.4h-0.3c-0.1-0.2-0.1-0.4-0.2-0.5c-0.1-0.1-0.2-0.1-0.4-0.1H62.8z M76.4,119.1
	v4.4c0,0.2,0,0.3,0.1,0.5c0.1,0.1,0.2,0.2,0.5,0.2v0.3h-3.9v-0.3c0.2-0.1,0.4-0.2,0.5-0.3c0.1-0.1,0.1-0.3,0.1-0.4v-11.3
	c0-0.2,0-0.4-0.1-0.5c-0.1-0.1-0.2-0.2-0.5-0.3v-0.3H81c1,0,1.7,0.1,2.3,0.2c0.6,0.1,1,0.3,1.5,0.6c0.5,0.3,0.8,0.8,1.1,1.4
	c0.2,0.6,0.3,1.2,0.3,1.8c0,2.2-1.1,3.4-3.4,3.8l2.4,3.7c0.4,0.6,0.7,1.1,0.9,1.2c0.2,0.2,0.4,0.3,0.7,0.3v0.3h-4.5v-0.3
	c0.3-0.1,0.5-0.2,0.5-0.4c0-0.1-0.1-0.4-0.4-0.8l-2.5-3.9H76.4z M76.4,116.9h4.2c0.6,0,1.1,0,1.3-0.1c0.3,0,0.5-0.1,0.7-0.2
	c0.5-0.3,0.7-0.7,0.7-1.4s-0.2-1.2-0.7-1.4c-0.2-0.1-0.5-0.2-0.7-0.2c-0.2,0-0.7-0.1-1.3-0.1h-4.2V116.9z M104,119.9l1.7,2.8
	l-0.2,0.2c-0.2-0.2-0.3-0.3-0.4-0.3c-0.1,0-0.4,0.2-0.9,0.5c-1.1,0.6-1.9,1.1-2.7,1.3c-0.7,0.2-1.6,0.3-2.6,0.3
	c-2,0-3.6-0.5-4.9-1.5c-0.7-0.6-1.3-1.3-1.8-2.2c-0.5-1-0.7-2.1-0.7-3.3c0-1.6,0.4-3,1.3-4.2c1.3-1.8,3.4-2.7,6-2.7
	c1,0,1.8,0.1,2.6,0.3s1.6,0.7,2.7,1.3c0.5,0.3,0.8,0.5,0.9,0.5c0.1,0,0.3-0.1,0.4-0.3l0.2,0.2l-1.7,2.8l-0.2-0.2c0-0.1,0-0.2,0-0.3
	c0-0.2-0.1-0.4-0.2-0.5c-0.2-0.2-0.4-0.4-0.8-0.6c-1.1-0.6-2.2-1-3.4-1c-1.4,0-2.6,0.4-3.4,1.1c-1,0.9-1.5,2.1-1.5,3.5
	c0,1.4,0.5,2.6,1.5,3.5c0.9,0.8,2,1.1,3.4,1.1c1.2,0,2.4-0.3,3.4-1c0.4-0.2,0.7-0.4,0.8-0.6c0.2-0.2,0.2-0.3,0.2-0.5
	c0-0.1,0-0.2,0-0.3L104,119.9z M113.6,110.9c2.2,0,3.9,0.6,5.2,1.9c1.4,1.3,2,3,2,5.1c0,1.3-0.3,2.5-1,3.6c-1.3,2.2-3.3,3.2-6.2,3.2
	c-2.2,0-3.9-0.6-5.2-1.9c-0.7-0.7-1.2-1.5-1.6-2.4c-0.3-0.8-0.5-1.7-0.5-2.6c0-1.3,0.3-2.6,1-3.7C108.6,112,110.7,111,113.6,110.9z
	 M113.6,113.2c-1.2,0-2.2,0.4-3,1.1c-0.9,0.9-1.4,2.1-1.4,3.5s0.5,2.6,1.4,3.5c0.8,0.8,1.8,1.1,3,1.1s2.2-0.4,3-1.1
	c0.5-0.4,0.8-1,1.1-1.6c0.2-0.6,0.3-1.2,0.3-1.8c0-1.5-0.5-2.7-1.4-3.6C115.8,113.6,114.8,113.2,113.6,113.2z M125.4,119.1v4.4
	c0,0.2,0,0.3,0.1,0.5c0.1,0.1,0.2,0.2,0.5,0.2v0.3h-3.9v-0.3c0.2-0.1,0.4-0.2,0.5-0.3s0.1-0.3,0.1-0.4v-11.3c0-0.2,0-0.4-0.1-0.5
	s-0.2-0.2-0.5-0.3v-0.3h7.8c1,0,1.7,0.1,2.3,0.2c0.6,0.1,1,0.3,1.5,0.6c0.5,0.3,0.8,0.8,1.1,1.4c0.2,0.6,0.3,1.2,0.3,1.8
	c0,2.2-1.1,3.4-3.4,3.8l2.4,3.7c0.4,0.6,0.7,1.1,0.9,1.2s0.4,0.3,0.7,0.3v0.3h-4.5v-0.3c0.3-0.1,0.5-0.2,0.5-0.4
	c0-0.1-0.1-0.4-0.4-0.8l-2.5-3.9H125.4z M125.4,116.9h4.2c0.6,0,1.1,0,1.3-0.1c0.3,0,0.5-0.1,0.7-0.2c0.5-0.3,0.7-0.7,0.7-1.4
	s-0.2-1.2-0.7-1.4c-0.2-0.1-0.5-0.2-0.7-0.2c-0.2,0-0.7-0.1-1.3-0.1h-4.2V116.9z M140.1,118.6v3.7h8.1c0.2,0,0.3,0,0.4-0.1
	c0.1-0.1,0.2-0.3,0.2-0.5h0.3v3.4h-0.3c-0.1-0.2-0.1-0.4-0.2-0.5c-0.1-0.1-0.2-0.1-0.4-0.1h-11.4v-0.3c0.2-0.1,0.4-0.2,0.5-0.3
	s0.1-0.3,0.1-0.5v-11.3c0-0.2,0-0.4-0.1-0.5s-0.2-0.2-0.5-0.3v-0.3h11.2c0.2,0,0.3,0,0.4-0.1c0.1-0.1,0.2-0.3,0.2-0.5h0.3v3.4h-0.3
	c-0.1-0.2-0.1-0.4-0.2-0.5c-0.1-0.1-0.2-0.1-0.4-0.1h-7.8v3.2h5.1c0.2,0,0.3,0,0.4-0.1c0.1-0.1,0.2-0.3,0.2-0.5h0.3v3.4h-0.3
	c-0.1-0.2-0.1-0.4-0.2-0.5c-0.1-0.1-0.2-0.1-0.4-0.1H140.1z M166.8,119.9l1.7,2.8l-0.2,0.2c-0.2-0.2-0.3-0.3-0.4-0.3
	c-0.1,0-0.4,0.2-0.9,0.5c-1.1,0.6-1.9,1.1-2.7,1.3c-0.7,0.2-1.6,0.3-2.6,0.3c-2,0-3.6-0.5-4.9-1.5c-0.7-0.6-1.3-1.3-1.8-2.2
	c-0.5-1-0.7-2.1-0.7-3.3c0-1.6,0.4-3,1.3-4.2c1.3-1.8,3.4-2.7,6-2.7c1,0,1.8,0.1,2.6,0.3c0.7,0.2,1.6,0.7,2.7,1.3
	c0.5,0.3,0.8,0.5,0.9,0.5c0.1,0,0.3-0.1,0.4-0.3l0.2,0.2l-1.7,2.8l-0.2-0.2c0-0.1,0-0.2,0-0.3c0-0.2-0.1-0.4-0.2-0.5
	s-0.4-0.4-0.8-0.6c-1.1-0.6-2.2-1-3.4-1c-1.4,0-2.6,0.4-3.4,1.1c-1,0.9-1.5,2.1-1.5,3.5c0,1.4,0.5,2.6,1.5,3.5
	c0.9,0.8,2,1.1,3.4,1.1c1.2,0,2.4-0.3,3.4-1c0.4-0.2,0.7-0.4,0.8-0.6s0.2-0.3,0.2-0.5c0-0.1,0-0.2,0-0.3L166.8,119.9z M176.3,110.9
	c2.2,0,3.9,0.6,5.2,1.9c1.4,1.3,2,3,2,5.1c0,1.3-0.3,2.5-1,3.6c-1.3,2.2-3.3,3.2-6.2,3.2c-2.2,0-3.9-0.6-5.2-1.9
	c-0.7-0.7-1.2-1.5-1.6-2.4c-0.3-0.8-0.5-1.7-0.5-2.6c0-1.3,0.3-2.6,1-3.7C171.4,112,173.4,111,176.3,110.9z M176.4,113.2
	c-1.2,0-2.2,0.4-3,1.1c-0.9,0.9-1.4,2.1-1.4,3.5s0.5,2.6,1.4,3.5c0.8,0.8,1.8,1.1,3,1.1c1.2,0,2.2-0.4,3-1.1c0.5-0.4,0.8-1,1.1-1.6
	c0.2-0.6,0.3-1.2,0.3-1.8c0-1.5-0.5-2.7-1.4-3.6C178.6,113.6,177.6,113.2,176.4,113.2z M185.4,123.5v-11.3c0-0.2,0-0.3-0.1-0.4
	c-0.1-0.1-0.2-0.2-0.5-0.3v-0.3h3.9v0.3c-0.2,0.1-0.4,0.1-0.5,0.2s-0.1,0.3-0.1,0.5v11.3c0,0.2,0,0.4,0.1,0.5
	c0.1,0.1,0.2,0.2,0.5,0.2v0.3h-3.9v-0.3c0.2-0.1,0.4-0.2,0.5-0.3C185.4,123.8,185.4,123.7,185.4,123.5z M193.5,115.4v8.1
	c0,0.2,0,0.4,0.1,0.5s0.2,0.2,0.5,0.3v0.3h-3.7v-0.3c0.2-0.1,0.4-0.2,0.5-0.3s0.1-0.3,0.1-0.5v-11.3c0-0.2,0-0.3-0.1-0.4
	s-0.2-0.2-0.5-0.3v-0.3h4.3v0.3c-0.3,0.1-0.4,0.2-0.4,0.4c0,0.2,0.1,0.3,0.3,0.5l6.9,7.6v-7.9c0-0.2,0-0.3-0.1-0.4
	c-0.1-0.1-0.2-0.2-0.5-0.3v-0.3h3.7v0.3c-0.2,0.1-0.4,0.2-0.5,0.3c-0.1,0.1-0.1,0.3-0.1,0.4v11.3c0,0.2,0,0.4,0.1,0.5
	c0.1,0.1,0.2,0.2,0.5,0.3v0.3h-3.9v-0.3c0.3-0.1,0.4-0.2,0.4-0.4c0-0.1-0.2-0.4-0.5-0.7L193.5,115.4z"/>
</svg>
