<svg width="27" height="19" viewBox="0 0 27 19" fill="none" xmlns="http://www.w3.org/2000/svg">
<path d="M26.6716 0.359326C26.6619 0.349482 26.6571 0.339637 26.6474 0.334715C26.6426 0.329793 26.6426 0.329793 26.6377 0.32487L26.6329 0.319948C26.6281 0.315026 26.6233 0.310104 26.6136 0.305181C26.6088 0.295337 26.6088 0.295337 26.6039 0.295337C26.3914 0.10829 26.1209 0 25.8408 0H1.15921C0.87424 0 0.608587 0.103368 0.396064 0.295337C0.391234 0.295337 0.391234 0.295337 0.386404 0.300259C0.381574 0.305181 0.371914 0.315026 0.367084 0.319948C0.362254 0.32487 0.357424 0.329793 0.352594 0.329793C0.130411 0.551295 0 0.861399 0 1.18135V17.8187C0 18.1484 0.135241 18.4635 0.371914 18.685C0.584437 18.8868 0.86458 19 1.15921 19H25.8408C26.1354 19 26.4156 18.8868 26.6281 18.685C26.8648 18.4635 27 18.1484 27 17.8187V1.18135C27 0.876166 26.8793 0.575907 26.6716 0.359326ZM24.0875 1.67358L15.2533 10.0858L13.5 11.7544L11.7467 10.0858L2.91252 1.67358H24.0875ZM1.70984 17.3264H1.64222V2.75155L9.33166 10.071L1.70984 17.3264ZM4.12004 17.3264L5.00394 16.4896H4.99911L9.93542 11.7889L9.94508 11.7987L10.5488 11.2277L12.4181 13.0096C12.7224 13.3 13.1136 13.4427 13.5048 13.4427C13.8961 13.4427 14.2873 13.2951 14.5916 13.0047L16.4608 11.2277L17.0646 11.7987L17.0742 11.7889L22.0057 16.4896H22.0009L22.8848 17.3264H4.12004ZM25.3578 17.3264H25.2902L17.6683 10.071L25.3578 2.75155V17.3264Z" fill="#FAFAFA"/>
</svg>
