<svg width="21" height="21" viewBox="0 0 21 21" fill="none" xmlns="http://www.w3.org/2000/svg">
<mask id="mask0" mask-type="alpha" maskUnits="userSpaceOnUse" x="1" y="3" width="19" height="15">
<path fill-rule="evenodd" clip-rule="evenodd" d="M7.875 10.5C9.8082 10.5 11.375 8.9332 11.375 7C11.375 5.0668 9.8082 3.5 7.875 3.5C5.9418 3.5 4.375 5.0668 4.375 7C4.375 8.9332 5.9418 10.5 7.875 10.5ZM10.325 11.375H9.86836C9.26133 11.6539 8.58594 11.8125 7.875 11.8125C7.16406 11.8125 6.49141 11.6539 5.88164 11.375H5.425C3.39609 11.375 1.75 13.0211 1.75 15.05V16.1875C1.75 16.9121 2.33789 17.5 3.0625 17.5H12.6875C13.4121 17.5 14 16.9121 14 16.1875V15.05C14 13.0211 12.3539 11.375 10.325 11.375ZM18.3969 7.0957L19.157 7.86406C19.2828 7.98984 19.2801 8.19492 19.1543 8.32344L15.2906 12.157C15.1621 12.2828 14.957 12.2828 14.8313 12.1543L12.5973 9.9039C12.4715 9.77539 12.4715 9.57031 12.6 9.44453L13.3684 8.68164C13.4969 8.55586 13.702 8.55586 13.8277 8.68437L15.0719 9.93672L17.9375 7.09297C18.066 6.96719 18.2711 6.96719 18.3969 7.0957Z" fill="white"/>
</mask>
<g mask="url(#mask0)">
<rect width="21" height="21" fill="#7C7F88"/>
</g>
</svg>
