<svg width="20" height="19" viewBox="0 0 20 19" fill="none" xmlns="http://www.w3.org/2000/svg">
<path d="M5.91237 14.4328C7.03499 15.4093 8.46803 15.9777 9.97531 16.0444C11.4826 16.1111 12.9741 15.6721 14.2042 14.7998C15.4342 13.9274 16.3292 12.6737 16.7419 11.2454C17.1545 9.8171 17.06 8.29933 16.474 6.94227C15.888 5.58521 14.8455 4.46984 13.5183 3.77998C12.191 3.09012 10.6582 2.86695 9.17255 3.14724C7.68687 3.42753 6.33696 4.19455 5.34528 5.32191C4.3536 6.44926 3.77934 7.86965 3.71714 9.349" stroke="#7C7F88"/>
<path d="M6.62018 7.17804L3.79175 10.0065L0.963321 7.17804" stroke="#7C7F88"/>
<path d="M14.1526 10.5L10.4999 10.5L10.4999 6.5" stroke="#7C7F88" stroke-width="0.75"/>
</svg>
