<svg width="18" height="15" viewBox="0 0 18 15" fill="none" xmlns="http://www.w3.org/2000/svg">
<path fill-rule="evenodd" clip-rule="evenodd" d="M17.1355 10.079L15.1 8.04352L10.7077 12.4358L12.7431 14.4713L17.1355 10.079ZM10.595 12.5498L10.4285 14.7518L12.6305 14.5853L10.595 12.5498Z" fill="#7C7F88"/>
<path fill-rule="evenodd" clip-rule="evenodd" d="M10.8603 5.22998H3.50861V4.72998H10.8603V5.22998ZM9.88004 7.32888H3.50861V6.82888H9.88004V7.32888ZM8.41206 9.42885H3.50861V8.92885H8.41206V9.42885ZM7.18443 11.5288H3.50861V11.0288H7.18443V11.5288Z" fill="#7C7F88"/>
<path d="M2.15479 0.712402C1.39539 0.712402 0.779785 1.32801 0.779785 2.0874V13.4716C0.779785 14.231 1.3954 14.8466 2.15479 14.8466H9.41847L9.4752 14.0966H2.15479C1.80961 14.0966 1.52979 13.8167 1.52979 13.4716V2.0874C1.52979 1.74222 1.80961 1.4624 2.15479 1.4624H12.2145C12.5597 1.4624 12.8395 1.74222 12.8395 2.0874V8.88988L13.5895 8.13988V2.0874C13.5895 1.32801 12.9739 0.712402 12.2145 0.712402H2.15479Z" fill="#7C7F88"/>
<path d="M13.5895 9.55409L12.8395 10.3041V13.4716C12.8395 13.7692 12.6315 14.0182 12.3529 14.0812L12.7431 14.4713L13.5799 13.6346C13.5863 13.5812 13.5895 13.5267 13.5895 13.4716V9.55409Z" fill="#7C7F88"/>
<path d="M10.4781 14.0966H12.1417L12.6305 14.5853L10.4285 14.7518L10.4781 14.0966Z" fill="#7C7F88"/>
</svg>
