<svg width="26" height="23" viewBox="0 0 26 23" fill="none" xmlns="http://www.w3.org/2000/svg">
<path fill-rule="evenodd" clip-rule="evenodd" d="M12.9744 1.50781C11.7945 1.50781 10.8839 2.40847 10.8839 3.4644V5.26729H9.88391V3.4644C9.88391 1.80685 11.2929 0.507812 12.9744 0.507812C14.6558 0.507812 16.0648 1.80685 16.0648 3.4644V5.26729H15.0648V3.4644C15.0648 2.40847 14.1542 1.50781 12.9744 1.50781Z" fill="#7C7F88"/>
<path d="M8.40259 6.18164C8.40259 5.62936 8.8503 5.18164 9.40259 5.18164H16.5461C17.0984 5.18164 17.5461 5.62936 17.5461 6.18164V11.4538C17.5461 12.0061 17.0984 12.4538 16.5461 12.4538H9.40259C8.8503 12.4538 8.40259 12.0061 8.40259 11.4538V6.18164Z" fill="#7C7F88"/>
<path fill-rule="evenodd" clip-rule="evenodd" d="M0.328674 19.0119C0.328674 16.8285 2.09863 15.0586 4.28198 15.0586H21.718C23.9014 15.0586 25.6713 16.8285 25.6713 19.0119C25.6713 21.1952 23.9014 22.9652 21.718 22.9652H4.28198C2.09863 22.9652 0.328674 21.1953 0.328674 19.0119ZM4.28198 16.0586C2.65091 16.0586 1.32867 17.3808 1.32867 19.0119C1.32867 20.643 2.65092 21.9652 4.28198 21.9652H21.718C23.3491 21.9652 24.6713 20.643 24.6713 19.0119C24.6713 17.3808 23.3491 16.0586 21.718 16.0586H4.28198Z" fill="#7C7F88"/>
<path d="M4.90041 20.7437L5.79381 19.633L6.67513 20.7437L7.07354 20.4661L6.32502 19.2588L7.55646 18.7758L7.41158 18.3171L6.11978 18.6551L6.03527 17.2788H5.55235L5.4437 18.6672L4.15189 18.3171L4.00702 18.7758L5.23846 19.2588L4.50201 20.4661L4.90041 20.7437Z" fill="#7C7F88"/>
<path d="M9.4985 20.7437L10.3919 19.633L11.2732 20.7437L11.6716 20.4661L10.9231 19.2588L12.1545 18.7758L12.0097 18.3171L10.7179 18.6551L10.6334 17.2788H10.1504L10.0418 18.6672L8.74998 18.3171L8.6051 18.7758L9.83654 19.2588L9.10009 20.4661L9.4985 20.7437Z" fill="#7C7F88"/>
<path d="M14.0966 20.7437L14.99 19.633L15.8713 20.7437L16.2697 20.4661L15.5212 19.2588L16.7526 18.7758L16.6077 18.3171L15.3159 18.6551L15.2314 17.2788H14.7485L14.6399 18.6672L13.3481 18.3171L13.2032 18.7758L14.4346 19.2588L13.6982 20.4661L14.0966 20.7437Z" fill="#7C7F88"/>
<path d="M18.6947 20.7437L19.5881 19.633L20.4694 20.7437L20.8678 20.4661L20.1193 19.2588L21.3507 18.7758L21.2058 18.3171L19.914 18.6551L19.8295 17.2788H19.3466L19.2379 18.6672L17.9461 18.3171L17.8013 18.7758L19.0327 19.2588L18.2963 20.4661L18.6947 20.7437Z" fill="#7C7F88"/>
</svg>
