<svg width="21" height="21" viewBox="0 0 21 21" fill="none" xmlns="http://www.w3.org/2000/svg">
<g id="user-plus">
<mask id="mask0" mask-type="alpha" maskUnits="userSpaceOnUse" x="1" y="3" width="19" height="15">
<path id="user-plus_2" fill-rule="evenodd" clip-rule="evenodd" d="M7.875 10.5C9.8082 10.5 11.375 8.9332 11.375 7C11.375 5.0668 9.8082 3.5 7.875 3.5C5.9418 3.5 4.375 5.0668 4.375 7C4.375 8.9332 5.9418 10.5 7.875 10.5ZM18.8125 9.1875H17.0625V7.4375C17.0625 7.19687 16.8656 7 16.625 7H15.75C15.5094 7 15.3125 7.19687 15.3125 7.4375V9.1875H13.5625C13.3219 9.1875 13.125 9.38437 13.125 9.625V10.5C13.125 10.7406 13.3219 10.9375 13.5625 10.9375H15.3125V12.6875C15.3125 12.9281 15.5094 13.125 15.75 13.125H16.625C16.8656 13.125 17.0625 12.9281 17.0625 12.6875V10.9375H18.8125C19.0531 10.9375 19.25 10.7406 19.25 10.5V9.625C19.25 9.38437 19.0531 9.1875 18.8125 9.1875ZM9.86836 11.375H10.325C12.3539 11.375 14 13.0211 14 15.05V16.1875C14 16.9121 13.4121 17.5 12.6875 17.5H3.0625C2.33789 17.5 1.75 16.9121 1.75 16.1875V15.05C1.75 13.0211 3.39609 11.375 5.425 11.375H5.88164C6.49141 11.6539 7.16406 11.8125 7.875 11.8125C8.58594 11.8125 9.26133 11.6539 9.86836 11.375Z" fill="white"/>
</mask>
<g mask="url(#mask0)">
<g id="&#240;&#159;&#142;&#168; color">
<rect id="&#240;&#159;&#142;&#168; Color" width="21" height="21" fill="#7C7F88"/>
</g>
</g>
</g>
</svg>
