<svg width="19" height="17" viewBox="0 0 19 17" fill="none" xmlns="http://www.w3.org/2000/svg">
<path fill-rule="evenodd" clip-rule="evenodd" d="M14.1262 12.527C15.4634 12.527 16.5191 11.4713 16.5191 10.1341C16.5191 8.79684 15.4634 7.74113 14.1262 7.74113C12.7889 7.74113 11.7332 8.79684 11.7332 10.1341C11.7332 11.4713 12.7889 12.527 14.1262 12.527ZM16.2376 13.0197H15.3226C14.9707 13.1604 14.5485 13.3012 14.1262 13.3012C13.7039 13.3012 13.2816 13.1604 12.8593 13.0197H12.0148C10.8183 13.0197 9.90335 13.9346 9.90335 15.1311V15.4126C9.90335 15.8349 10.2552 16.1868 10.6775 16.1868H17.5748C17.9971 16.1868 18.349 15.8349 18.349 15.4126V15.1311C18.349 13.9346 17.3637 13.0197 16.2376 13.0197Z" fill="#7C7F88"/>
<path d="M2 0.650879C1.24061 0.650879 0.625 1.26649 0.625 2.02588V15.1866C0.625 15.946 1.24061 16.5616 2 16.5616H8.15353C8.04606 16.3271 7.97038 16.0752 7.93207 15.8116H2C1.65482 15.8116 1.375 15.5318 1.375 15.1866V2.02588C1.375 1.6807 1.65482 1.40088 2 1.40088H13.6605C14.0056 1.40088 14.2855 1.6807 14.2855 2.02588V5.74399C14.5419 5.75295 14.7925 5.78347 15.0355 5.83381V2.02588C15.0355 1.26649 14.4199 0.650879 13.6605 0.650879H2Z" fill="#7C7F88"/>
<path d="M15.0355 7.91528C14.8024 7.82151 14.5503 7.76305 14.2855 7.74624V12.522C14.5503 12.5052 14.8024 12.4468 15.0355 12.353V7.91528Z" fill="#7C7F88"/>
<path d="M15.0355 13.1269C14.7997 13.2076 14.5443 13.2745 14.2855 13.2949V15.1866C14.2855 15.5318 14.0056 15.8116 13.6605 15.8116H10.0165C10.1534 16.0352 10.4003 16.1868 10.6775 16.1868L14.6039 16.1869C14.8696 15.9362 15.0355 15.5807 15.0355 15.1866V13.1269Z" fill="#7C7F88"/>
<path fill-rule="evenodd" clip-rule="evenodd" d="M11.9939 5.68469H3.6664V5.18469H11.9939V5.68469ZM10.8835 8.06325H3.6664V7.56325H10.8835V8.06325ZM9.22071 10.4418H3.6664V9.94181H9.22071V10.4418ZM7.83013 12.8204H3.6664V12.3204H7.83013V12.8204Z" fill="#7C7F88"/>
</svg>
