<svg width="16" height="13" viewBox="0 0 16 13" fill="none" xmlns="http://www.w3.org/2000/svg">
<path d="M3.02441 4.90431V1.57416C3.02441 1.2488 3.29181 1 3.5974 1H13.1663C13.9303 1 14.5224 1.61244 14.5224 2.39713V4.86603L3.02441 4.90431Z" stroke="#545662" stroke-miterlimit="10"/>
<path d="M14.5417 2.30127V5.17208V11.0477C14.5417 11.8132 13.9305 12.4448 13.1474 12.4448H2.50893C2.26063 12.4448 2.05054 12.2343 2.05054 11.9855V4.23428C2.05054 3.98548 2.26063 3.77495 2.50893 3.77495H13.1665C13.9305 3.77495 14.5608 3.16251 14.5608 2.37782" fill="white"/>
<path d="M14.5417 2.30127V5.17208V11.0477C14.5417 11.8132 13.9305 12.4448 13.1474 12.4448H2.50893C2.26063 12.4448 2.05054 12.2343 2.05054 11.9855V4.23428C2.05054 3.98548 2.26063 3.77495 2.50893 3.77495H13.1665C13.9305 3.77495 14.5608 3.16251 14.5608 2.37782" stroke="#545662" stroke-miterlimit="10"/>
<path d="M4.49523 8.00488C4.49523 8.77043 3.88404 9.40201 3.10096 9.40201H1V6.62689H3.13915C3.90314 6.60775 4.49523 7.23933 4.49523 8.00488Z" fill="white" stroke="#545662" stroke-miterlimit="10" stroke-linejoin="round"/>
</svg>
